/* XPM */
static char *_cf4e52dddb14b20d7f94f0c26bf5aacRV7jxy7nNJx4UUN6[] = {
/* columns rows colors chars-per-pixel */
"64 64 181 2 ",
"   c #7D7447",
".  c #7C7549",
"X  c #7D794C",
"o  c #737E55",
"O  c #7C7C50",
"+  c #807547",
"@  c #837749",
"#  c #837C4E",
"$  c #897E4F",
"%  c #857F50",
"&  c #6F835B",
"*  c #75835A",
"=  c #76845B",
"-  c #549B7C",
";  c #6C8A63",
":  c #6B8F69",
">  c #778D63",
",  c #7D8E63",
"<  c #799167",
"1  c #72946D",
"2  c #629471",
"3  c #669B76",
"4  c #619C7A",
"5  c #6C9F79",
"6  c #709F78",
"7  c #6BA07B",
"8  c #74A67E",
"9  c #868153",
"0  c #8B8555",
"q  c #8E8857",
"w  c #838A5C",
"e  c #8D8959",
"r  c #928957",
"t  c #928C5A",
"y  c #96915E",
"u  c #98925F",
"i  c #869869",
"p  c #979361",
"a  c #9A9562",
"s  c #9E9A65",
"d  c #A19B66",
"f  c #A29D69",
"g  c #A5A16C",
"h  c #A8A46E",
"j  c #AEAB74",
"k  c #B0AE76",
"l  c #B2AF78",
"z  c #B6B47C",
"x  c #B9B67E",
"c  c #BAB87F",
"v  c #3DAD96",
"b  c #39AE99",
"n  c #37B19C",
"m  c #3AB29C",
"M  c #2EB8A6",
"N  c #2ABCAB",
"B  c #31B5A2",
"V  c #36B9A4",
"C  c #3DBBA4",
"Z  c #34BFAC",
"A  c #3DBFA9",
"S  c #599F80",
"D  c #48A287",
"F  c #45A48A",
"G  c #4AA68A",
"H  c #47A88E",
"J  c #4EAA8D",
"K  c #54A284",
"L  c #5DA180",
"P  c #51AC8E",
"I  c #5FAB8A",
"U  c #41AC93",
"Y  c #4BAD92",
"T  c #52AE91",
"R  c #4BB195",
"E  c #43B49B",
"W  c #48B49A",
"Q  c #4AB89F",
"!  c #56B294",
"~  c #58B496",
"^  c #53B79A",
"/  c #5AB799",
"(  c #5DBA9B",
")  c #64A582",
"_  c #69B38E",
"`  c #61BE9E",
"'  c #43BBA2",
"]  c #4CBEA4",
"[  c #5ABEA0",
"{  c #1BC9BD",
"}  c #2DC0AE",
"|  c #34C1AE",
" . c #3DC2AC",
".. c #24C2B3",
"X. c #28C6B6",
"o. c #21C7B9",
"O. c #2DCEBD",
"+. c #34C5B1",
"@. c #3AC6B1",
"#. c #33C9B6",
"$. c #3ACBB6",
"%. c #33CDBA",
"&. c #3CCEB9",
"*. c #2ED0BE",
"=. c #31D1BF",
"-. c #3CD3BF",
";. c #62C09F",
":. c #43C4AD",
">. c #4BC5AC",
",. c #55C1A5",
"<. c #5EC4A5",
"1. c #54C6A9",
"2. c #59C5A8",
"3. c #54CAAF",
"4. c #5ACBAE",
"5. c #40C9B3",
"6. c #4DCDB4",
"7. c #57CEB2",
"8. c #59CDB1",
"9. c #4ED0B6",
"0. c #44D1BA",
"q. c #4AD1B9",
"w. c #5ADABF",
"e. c #65C3A2",
"r. c #68C6A5",
"t. c #6AC9A7",
"y. c #64CAAA",
"u. c #6CCBA9",
"i. c #78CAA5",
"p. c #71D0AE",
"a. c #63D3B5",
"s. c #16CEC4",
"d. c #1ACDC1",
"f. c #0FD1C9",
"g. c #14D0C7",
"h. c #19D0C5",
"j. c #12D1C8",
"k. c #1BD4CA",
"l. c #24CFC1",
"z. c #25D4C7",
"x. c #2BD3C4",
"c. c #21D7CB",
"v. c #28D7C9",
"b. c #25D8CB",
"n. c #2CDBCC",
"m. c #32D5C3",
"M. c #3BD5C2",
"N. c #3FD8C4",
"B. c #33DECE",
"V. c #3BDECD",
"C. c #37E0CE",
"Z. c #3BE1CF",
"A. c #3BE1D0",
"S. c #4CDBC3",
"D. c #41E2D0",
"F. c #80B289",
"G. c #90BC8F",
"H. c #9EBB8B",
"J. c #8EBC90",
"K. c #92BF93",
"L. c #AEB781",
"P. c #ADBA85",
"I. c #B0B681",
"U. c #B7B881",
"Y. c #BCBA82",
"T. c #C1BF85",
"R. c #83C49C",
"E. c #8BC59B",
"W. c #93C396",
"Q. c #94C598",
"!. c #B6C28B",
"~. c #A6C491",
"^. c #86CAA1",
"/. c #C1C086",
"(. c #C2C087",
"). c #C2C288",
"_. c #C4C389",
"`. c #C6C58B",
"'. c #C8C78C",
"]. c #C8C78D",
"[. c #CAC98E",
/* pixels */
"k.k.k.k.k.k.k.k.k.k.k.k.k.k.k.c.n.D.D.V.B.k.k.k.k.k.k.k.k.k.k.k.k.k.k.k.k.k.k.k.k.k.k.k.k.k.k.k.k.k.k.k.V.A.D.D.B.c.k.k.k.k.k.k.",
"j.j.j.j.j.j.j.j.j.j.j.j.j.j.j.j.c.C.C.C.C.k.j.j.j.j.j.j.j.j.j.j.j.j.j.j.j.j.j.j.j.j.j.j.j.j.j.j.j.j.j.g.B.Z.C.C.c.j.j.j.j.j.j.j.",
"j.j.j.j.j.j.j.j.j.j.j.j.j.j.j.j.g.k.b.C.C.B.n.k.j.j.j.j.j.j.j.j.j.j.j.j.j.j.j.j.j.j.j.j.j.j.j.k.n.n.n.n.c.k.c.c.k.j.j.j.j.j.j.j.",
"j.j.j.j.j.j.j.j.j.j.j.j.j.j.j.j.j.j.k.C.C.Z.C.c.j.j.j.j.j.j.j.j.j.j.j.j.j.j.j.j.j.j.j.j.j.j.j.b.C.C.C.B.g.j.j.j.j.j.j.j.j.j.j.j.",
"j.j.j.j.j.j.j.j.j.j.j.j.j.j.j.j.j.j.k.C.C.C.Z.B.n.n.n.n.n.n.n.n.n.n.n.n.n.n.n.n.n.n.n.n.n.n.n.n.k.k.k.k.g.j.j.j.j.j.j.j.j.j.j.j.",
"j.j.j.j.j.j.j.j.j.j.j.j.j.j.j.j.j.j.k.C.C.C.Z.Z.C.C.C.Z.C.C.C.C.C.Z.C.C.C.C.C.Z.Z.Z.Z.Z.Z.Z.Z.n.j.j.j.j.j.j.j.j.j.j.j.j.j.j.j.j.",
"j.j.j.j.j.j.j.j.j.j.j.j.j.j.j.j.k.n.B.C.C.b.c.c.c.c.c.c.c.c.c.c.c.c.c.c.c.c.b.C.C.C.C.C.Z.n.c.k.j.j.j.j.j.j.j.j.j.j.j.j.j.j.j.j.",
"j.j.j.j.j.j.j.j.j.j.j.j.j.j.j.j.c.Z.C.C.V.k.j.j.j.j.j.j.j.j.j.j.j.j.j.j.j.j.k.C.C.C.C.C.Z.c.j.j.j.j.j.j.j.j.j.j.j.j.j.j.j.j.j.j.",
"j.j.j.j.j.j.j.j.j.j.j.j.j.j.c.n.n.c.c.c.k.g.j.j.j.j.j.j.j.j.j.j.j.j.j.j.j.j.g.c.c.c.c.c.c.n.n.n.n.b.j.j.j.j.j.j.j.j.j.j.j.j.j.j.",
"j.j.j.j.j.j.j.j.j.j.j.j.j.j.n.Z.n.j.j.j.j.j.j.j.j.j.j.j.j.j.j.j.j.j.j.j.j.j.j.j.j.j.j.j.j.n.Z.Z.Z.B.g.j.j.j.j.j.j.j.j.j.j.j.j.j.",
"j.j.j.j.j.j.j.j.j.j.j.j.b.n.b.c.k.j.j.j.j.j.j.j.j.j.j.j.j.j.j.j.j.j.j.j.j.j.j.j.j.j.j.j.j.k.c.c.c.b.n.n.n.n.k.j.j.j.j.j.j.j.j.j.",
"j.j.j.j.j.j.j.j.j.j.j.j.B.Z.b.j.j.j.j.j.j.j.j.j.j.j.j.j.j.j.j.j.j.j.j.j.j.j.j.j.j.j.j.j.j.j.j.j.j.k.C.Z.Z.C.k.j.j.j.j.j.j.j.j.j.",
"n.n.n.n.n.n.n.n.n.n.n.n.B.Z.b.j.j.j.j.j.j.j.j.j.j.j.j.j.j.j.j.j.j.j.j.j.j.j.j.j.j.j.j.j.j.j.j.j.j.g.c.c.c.c.n.n.n.n.n.n.n.n.n.n.",
"Z.Z.Z.Z.Z.Z.Z.Z.Z.Z.Z.Z.C.C.b.j.j.j.j.j.j.j.j.j.j.j.j.j.j.j.j.j.j.j.j.j.j.j.j.j.j.j.j.j.j.j.j.j.j.j.j.j.j.j.B.Z.Z.Z.Z.Z.Z.Z.Z.Z.",
"c.c.c.c.c.c.c.c.c.b.C.C.C.Z.b.j.j.j.j.j.j.j.j.j.j.j.j.j.j.j.j.j.j.j.j.j.j.j.j.j.j.j.j.j.j.j.j.j.j.j.j.j.j.j.n.Z.C.C.B.c.c.c.c.c.",
"j.j.j.j.j.j.j.j.j.g.B.C.C.Z.b.j.j.j.j.j.j.j.j.j.j.j.j.j.j.j.j.j.j.j.j.j.j.j.j.j.j.j.j.j.j.j.j.j.j.j.j.j.j.j.n.Z.C.Z.n.j.j.j.j.j.",
"j.j.j.j.j.j.j.j.j.g.c.c.B.Z.b.j.j.j.j.j.j.j.j.j.j.j.j.j.j.j.j.j.j.j.j.j.j.d.$.$.$.$.$.$.$.O.j.j.j.j.j.g.n.n.b.c.c.c.k.j.j.j.j.j.",
"j.j.j.j.j.j.j.j.j.j.j.j.B.Z.b.j.j.j.j.j.j.j.j.j.j.j.j.j.j.j.j.g.h.h.h.h.g.>.L.I.I.I.I.I.U.R.h.h.h.j.j.g.B.C.k.j.j.j.j.j.j.j.j.j.",
"j.j.j.j.j.j.j.j.j.j.j.j.B.Z.B.n.c.j.j.j.j.j.j.j.j.f.f.f.f.f.j.e.G.J.J.J.J.H.U.U.U.U.Y.Y.Y.P.K.W.R.z.n.n.c.c.g.j.j.j.j.j.j.j.j.j.",
"j.j.j.j.j.j.j.j.j.j.j.j.n.Z.C.Z.n.j.j.j.j.j.j.j.l.1.2.2.2.2.2.H.x x x x x x U.U.U.z z z z z z x P.u.w.C.g.j.j.j.j.j.j.j.j.j.j.j.",
"j.j.j.j.j.j.j.j.j.j.j.j.n.Z.C.C.B.n.n.n.M.M.M.M.8.z x x x x x x x x x x U.Y.Y.U.x k j j j j j j l T.^.m.h.j.j.j.j.j.j.j.j.j.j.j.",
"j.j.j.j.j.j.j.j.j.j.j.j.n.Z.C.C.Z.Z.Z.S.H.P.P.P.L.x x x x x x x x x x Y.Y.Y.Y.z k z x x x x x x x /.!.~.%.j.j.j.j.j.j.j.j.j.j.j.",
"j.j.j.j.j.j.j.j.j.g.b.n.B.A.A.A.S.E.E.W.I.x x x x x x x x x x x x x U.U.U.U.x z z x x x x x x U.Y./.T.Y.Q.y.j.j.j.j.j.j.j.j.j.j.",
"j.j.j.j.j.j.j.j.j.g.B.Z.A.S.a.a.i.x x x x x x x x x x x x x x x x U.U.U.Y.Y.U.x x x x x x x Y.T././.Y.U.T.~.6.O.j.j.j.j.j.j.j.j.",
"j.j.j.c.n.n.n.n.n.n.b.b.x.t.x x U.U.U.U.Y.Y.U.x x x x x x x x x x U.U.Y./././.U.x x x x x Y.[.`././.T.U.T./.).4.f.j.j.j.j.j.j.j.",
"j.j.j.n.Z.Z.Z.Z.Z.C.j.l.Q.!.T.T.T./././././.T.Y.x x x x x x x x U.U.U.Y./././././.`.].].].`._._./.Y.Y.U.T././.4.f.j.j.j.j.j.j.j.",
"j.b.n.n.n.n.b.b.b.b.' _ Y./././././.Y.x /././.Y.U.x x x x x x U.U.Y.Y.T././././.).`.`.`.].`./.T.Y.Y.Y.Y.Y.Y./.F.Y d.j.j.j.j.j.j.",
"j.B.Z.n.b.k.j.j.d.} 5 a Y././.Y.Y.Y.x z T././.Y.U.U.U.U.U.U.Y.Y.Y.Y.T./././././././././.T.T.T.Y.Y.Y.Y.Y.Y.Y./.d w C o.j.j.j.j.j.",
"n.n.n.c.k.g.j.g.V w # 9 U./.T.z j k c /./././.Y.Y.U.U.U.U.Y././././././././././././././.Y.Y.Y.Y.U.U.U.Y.T././.f 0 9 I n.n.n.n.n.",
"C.n.b.k.j.j.s.- ; 0 9 0 f j z z z z Y././.T.Y.U.Y.Y.Y.T.Y.U.Y.T././././././././././.Y.Y.Y.Y.U.U.U.U.Y.T.).U.h y 9 @ L n.C.Z.Z.Z.",
"n.c.k.g.j.j.d.; $ 0 0 q p g z x x x Y././.T.Y.Y.Y.Y.T./.T.Y.Y./././././././././././.T.Y.Y.Y.Y.Y.Y./._.`.x j a t 9   - b.b.b.b.b.",
"b.g.j.j.j.j.d.1 9 0 0 q y g z x x x Y./././././.T.Y.Y./././././././././././././././././././.).).)._._./.g a a t 9 * K v.g.j.j.j.",
"B.c.k.g.j.k.x.; @ 0 0 0 q t s k x x Y././././././././././././././././././././././././././._.[.[._.g d d a y q q , @.#.| d.j.j.j.",
"C.n.b.k.j.k.x.< $ 9 9 9 0 q t d h g z Y.U.Y./.Y.U.U.Y././.Y.z z z z z z z z z Y.)./.Y.U.Y.x j j h s y t a y 0 ) ' +.:.1.l.j.j.j.",
"b.n.B.z...X.O.I 1 # # % q t t p a a h k x Y.Y.x x x U.Y.Y.x k j j j j k z k h z Y.Y.z j j h a a a a t 0 t i 5 >.m.:.2.u.&.l.j.j.",
"j.B.A.x.F U Z x.C o O 9 y a a a a a a s c U.z z z x x x x x x k j j z x T.z s h j j g a a a a a a a t 0 w 7 x.-.6.y.t.t.t.3.g.j.",
"j.c.b.x.F H R  .+.#.2 + 9 t a a a a a a y a s y s z x x x x x x z z x x x U.U.h s s s a a a a a a t 9 X Q &.0.7.y.t.t.t.t.3.g.j.",
"j.j.j.x.F G J W C %.' K O $ q q q q q 0 0 t a q p T././.x x x x x x x x x z j y 0 a a a a p t t r # : Y $.-.1.<.e.e.r.t.t.3.g.j.",
"j.j.j.x.F G J J Y ' %.%.2 = 9 # # # X X 9 t y t a U.Y.Y.z z Y.Y.U.x x x j h a % X y u u u t 9 , 1 ; Y n.0.3.` ` ` ` e.t.t.3.g.j.",
"j.j.j.x.H G G G J J ' @.x./ p # X # # # 0 0 q y y q y s a j ].]._.x z z t t p % X 0 0 e e 9 X W v.v.-.q.2.e.e.e.e.e.r.t.t.3.g.j.",
"b.b.b.m.Y J G G G J Y W +.@.>.i r 0 # X 0 0 0 q t y a a a d h s a p p y q 9 $ q r @ 4  .:. .A $.-.-.9.y.e.` e.r.t.t.r.e.( ] g.j.",
"Z.Z.A.N.R J G G G G J J E | O./ 8 0 $ # $ 9 0 0 q t p a a p t 9 # $ $ $ $ #   6 _ S E x.m.m.m.q.8.7.y.t.e.e.r.e.e.e.;.( ! E g.j.",
"C.n.b.x.Y J G G G G G J J W C x. .< , , X # 0 0 0 0 t a a t 0 # . . . . & & & C z.v.%.A 6.6.9.4.t.t.t.t.t.t.t.e.` ` ( ! P E g.k.",
"C.k.j.{ Y J G G G G G G G J Y C +.=.=.@.= # % 0 0 0 q q q q 0 # . . . o A O.O.+.| | >.r.<.e.y.u.t.t.t.t.t.r.` e.e.e.( P P E g.c.",
"b.k.j.{ Y J J J G G G G G G J Y ' %.%.#.' Q W > $ 0 0 0 0 9 $ + o R W E +.%.-.>.,.,.<.t.r.e.e.e.e.e.r.t.e.e.e.e.e.~ T J J Q v.n.",
"j.j.j.{ Y J J J G J G D D J ! ! ^ >.>.>.m.x.x.I 3 7 7 7 7 5 3 2 K *.v.x.:.>.3.<.e.e.r.t.t.t.e.e.e.;.e.r.e.e.e.` ( T J J J Q V.Z.",
"j.j.j.{ F G G G J J G D G ! e.e.e.e.e.e.:.:.:.x.v.v.v.v.v.v.v.v.x. . .:.<.e.e.e.e.t.t.t.t.u.p.p.u.e.e.` e.e.e.~ P ! T J Y ' v.n.",
"j.j.j.{ F D D G G J G G ( e.e.e.e.e.e.e.<.[ ^  .+.+.+.| | | | +. .R R ^ ~ ( e.e.e.e.r.t.r.e.r.r.r.e.e.( ! T T P J P J G } d.j.j.",
"j.j.j.s.N b D G G G D H e.r.r.r.r.e.r.r.e.( ! ,.1.1.] Q E v U W W J T ! ! ~ ( ( ( e.e.r.e.e.e.` ( ( / ! P J J J J J J G o.j.j.j.",
"j.j.j.j.j...v F G G G G ( e.t.t.t.e.r.r.r.` / e.t.t.` ~ G D D G J J T ! ! ! ! ! ~ ` ;.;.;.;.;./ ! ! T G J J J J J G U m { j.j.j.",
"j.j.j.j.j.g.d.U G G G D J / e.t.t.t.r.e.t.t.t.t.t.e.e.` J G D D D G G J J T ! ! ! ~ ~ ~ ~ ~ ~ ! ! ! T G G G G G G G V s.g.j.j.j.",
"j.j.j.j.j.j.s.E J G G G T ` u.r.e.r.r.t.t.t.t.r.r.t.r.e.T J G D D D D D G J J ! ! T T T ! ! T T P J J G G G D D F ..{ j.j.j.j.j.",
"j.j.j.j.j.j.s.E J J G G T ( e.r.e./ e.t.t.t.t.r.e.( ( / T J G D D D G G J J G T T J J J T T J J J G G G G U B B M s.j.j.j.j.j.j.",
"j.j.j.j.j.j.s.E J J J J J T ~ e.e.J ( u.u.t.r.r.;.P J J J J D D D D G J J J G J J J J J J J J J J G G D F B g.j.j.j.j.j.j.j.j.j.",
"j.j.j.j.j.j.s.v D D D G J T ! T T ! e.u.u.e.~ ~ ! J J J J J D D D D D D G G G G J J J J J J J J G D D F #.v.g.j.j.j.j.j.j.j.j.j.",
"j.j.j.j.j.j.g...B D J T ! ! ! J J ! ( ` ` ( ! T T J J J J G G D D D G G G G G G G J G G G G J G F Z $.5.V.A.k.j.j.j.j.j.j.j.j.j.",
"j.j.j.j.j.j.j.j.{ n C ' T ! ! J J ! ! ! ! ! ! P J J J J G G G D D D G G G G G G G G D D b n m n B h.n.n.B.B.b.c.c.c.k.j.j.j.j.j.",
"j.j.j.j.j.j.j.j.j.g.j.{ U Y ! J J J J P J J J J J J J G G G D F F F F F F F F F F F F U { j.g.g.g.j.j.g.b.b.B.Z.C.Z.n.j.j.j.j.j.",
"c.c.c.c.c.c.c.c.c.c.c.z.m.:.! ! T G T ! P J J J J J G D D D D N { { { { { { { { { { { { s.j.j.j.j.j.j.j.k.k.n.B.C.Z.B.c.c.c.c.c.",
"Z.Z.Z.Z.Z.Z.Z.Z.Z.Z.C.C.n.m.+.| | N Q ! P P P G G G D F M N N d.j.j.j.j.j.j.j.j.j.j.j.j.j.j.j.j.j.j.j.j.j.j.c.b.B.Z.C.C.C.Z.Z.Z.",
"n.n.n.n.n.n.n.n.n.n.C.C.B.n.b.c.k.j.+.Q Q E E E v v v n s.j.j.j.j.j.j.j.j.j.j.j.j.j.j.j.j.j.j.j.j.j.j.j.j.j.c.b.B.Z.C.C.C.n.n.n.",
"j.j.j.j.j.j.j.j.j.g.B.Z.Z.Z.Z.Z.n.j.g.s.s.s.s.s.s.s.s.s.g.j.j.j.j.j.j.j.j.j.j.j.j.j.j.j.j.j.j.j.j.j.j.j.j.j.c.b.B.C.C.Z.B.g.j.j.",
"j.j.j.j.j.j.j.j.j.g.n.n.n.n.B.Z.B.c.k.j.j.j.j.j.j.j.j.j.j.j.j.j.j.j.j.j.j.j.j.j.j.j.j.j.j.j.j.j.j.j.j.j.k.k.n.n.B.C.B.n.b.g.j.j.",
"j.j.j.j.j.j.j.j.j.j.j.j.j.j.n.Z.C.C.B.g.j.j.j.j.j.j.j.j.j.j.j.j.j.j.j.j.j.j.j.j.j.j.j.j.j.j.j.j.j.j.j.g.c.b.B.C.C.Z.n.j.j.j.j.j."
};
