/* XPM */
static char *_140180ee8b3459ab87ad9aff87179eempgrOYz8VvoV3xoG[] = {
/* columns rows colors chars-per-pixel */
"64 64 87 1 ",
"  c #15D1C9",
". c #18D3C9",
"X c #1CD4CA",
"o c #23D7CB",
"O c #3CE1CF",
"+ c #3DE1CF",
"@ c #37DFCE",
"# c #36DECE",
"$ c #20D6CA",
"% c #14D1C8",
"& c #26D8CB",
"* c #3AE0CF",
"= c #3BE0CF",
"- c #3EE1D0",
"; c #39E0CF",
": c #17D2C9",
"> c #12D1C8",
", c #11D1C8",
"< c #1AD4C9",
"1 c #38E0CE",
"2 c #3AE1CF",
"3 c #3BE1CF",
"4 c #13D1C8",
"5 c #25D8CB",
"6 c #35DFCE",
"7 c #16D3C9",
"8 c #15D2C8",
"9 c #1DD5CA",
"0 c #21D7CB",
"q c #36DFCE",
"w c #33DECE",
"e c #2FDCCD",
"r c #14D2C8",
"t c #2ADACC",
"y c #27D9CC",
"u c #1ED6CA",
"i c #1CD5CA",
"p c #13D2C8",
"a c #34DECE",
"s c #3CE2CF",
"d c #28DACC",
"f c #16D2C9",
"g c #28D9CC",
"h c #35DECE",
"j c #2EDCCD",
"k c #2DDCCD",
"l c #1FD6CA",
"z c #19D4C9",
"x c #2DDBCD",
"c c #21D7CA",
"v c #1BD5CA",
"b c #11D0C8",
"n c #31DDCD",
"m c #32DECD",
"M c #2BDBCC",
"N c #20D7CA",
"B c #22D7CB",
"V c #2DDBCC",
"C c #25D9CB",
"Z c #3DE2CF",
"A c #2CDBCC",
"S c #24D8CB",
"D c #23D8CB",
"F c #32DDCD",
"G c #29DACC",
"H c #30DDCD",
"J c #37E0CE",
"K c #17D3C9",
"L c #2ADBCC",
"P c #26D9CB",
"I c #27D9CB",
"U c #1BD4C9",
"Y c #1BD5C9",
"T c #18D4C9",
"R c #15D2C9",
"E c #32DECE",
"W c #2FDDCD",
"Q c #2DDCCC",
"! c #1CD5C9",
"~ c #38E0CF",
"^ c #28DACB",
"/ c #2EDCCC",
"( c #33DECD",
") c #29DACB",
"_ c #39E0CE",
"` c #1DD6CA",
"' c white",
/* pixels */
"              .XoO+@#$%                            %&*=-;$X:    ",
">>>>>>>>>>>>>>>,<1233$>>>>>>>>>>>>>>>>>>>>>>>>>>444>532267,>>>>>",
">>>>>>>>>>>>>>>>890q3we0>>>>>>>>>>>>>>>>>>>>>>>rteeeyuuuip>>>>>>",
">>>>>>>>>>>>>>>>>,8a33sd>4444444444444444444444fa33Og,,,,>>>>>>>",
">>>>>>>>>>>>>>>>>>fh3336jjjjjjjjjjjjjjjjjjjjjjek0uulz>>>>>>>>>>>",
">>>>>>>>>>>>>>>>>>763323333333333333333OOOOOOO31z,,,>>>>>>>>>>>>",
">>>>>>>>>>>>>>>>.xe;3dulllllllllllllll$a333336cur>>>>>>>>>>>>>>>",
">>>>>>>>>>>>>>>>v;332lb,,,,,,,,,,,,,,,4n32223mr>>>>>>>>>>>>>>>>>",
">>>>>>>>>>>>>>9jMNlll7>>>>>>>>>>>>>>>>4i$llllBxjjkv>>>>>>>>>>>>>",
">>>>>>>>>>>>>>BOmr,,,>>>>>>>>>>>>>>>>>>,,,,,,<;O33$>>>>>>>>>>>>>",
">>>>>>>>>>>>Bkdc94>>>>>>>>>>>>>>>>>>>>>>>>>>>8$NNcdVVkC4>>>>>>>>",
">>>>>>>>>>>>MZM,,>>>>>>>>>>>>>>>>>>>>>>>>>>>>>,,,>ksOOnp>>>>>>>>",
"AAAAAAAAAAAA6OM>>>>>>>>>>>>>>>>>>>>>>>>>>>>>>>>>>>i000SAAAAAAAAA",
"OOOOOOOOOOOO3OM>>>>>>>>>>>>>>>>>>>>>>>>>>>>>>>>>>>>,,b92OOOOOOOO",
"000000000D633OM>>>>>>>>>>>>>>>>>>>>>>>>>>>>>>>>>>>>>>,92332dc000",
",,,,,,,,,rFO3OM>>>>>>>>>>>>>>>>>>>>>>>>>>>>>>>>>>>>>>,92332ib,,,",
">>>>>>>>>4uBnOM>>>>>>>>>>>>>>>>>>>>>>>>>>>>>>>>>>>>>uAGBBB07>>>>",
">>>>>>>>>>,,tsM>>>>>>>>>>>>>>>>>>>>>>>>>>>>>>>>>>>>,CZH4,,,>>>>>",
">>>>>>>>>>>>MOhMCp>>>>>>>>>>>>>>>>>>>>>>>>>>>>>>>>BMyBu>>>>>>>>>",
">>>>>>>>>>>>MO3Owr>>>>>>>>>>>>>>>>>>>>>>>>>>>>>>>>jZd,,>>>>>>>>>",
">>>>>>>>>>>>MO33JMtttttttttttttttMB>>>>>>>>>>KGLttCDv>>>>>>>>>>>",
">>>>>>>>>>>>LO333OOOOOOOOOOOOOOOOZx>>>>>>>>>,<;OOO$b>>>>>>>>>>>>",
">>>>>>>>>4Sta333q5SSSSSSSSSSSSSSSSPGGGGGGGGGGLejPD.>>>>>>>>>>>>>",
">>>>>>>>>rwZO33Omr,,,,,,,,,,,,,,,b0OOOOOOOOOsJIS8,>>>>>>>>>>>>>>",
">>>uGGGGGdCSSSSSN4>>>>>>>>>>>>>>>>zSSSSSSSSSSInnLd<>>>>>>>>>>>>>",
">>,gZOOOO2U,,,,,,>>>>>>>>>>>>>>>>>>,,,,,,,,,,<;OO3$,>>>>>>>>>>>>",
"4DGAHA555S7>>>>>>>>>>>>>>>>>>>>>>>>>>>>>>>>>>fDI@3edu>>>>>>>>>>>",
"4nZHPl>,,,>>>>>>>>>>>>>>>>>>>>>>>>>>>>>>>>>>>>,ra33sG,>>>>>>>>>>",
"djHCYT>>>>>>>>>>>>>>>>>>>>>>>>>>>>>>>>>>>>>>>>>Ra333Egdddddddddd",
"3MPY,>>>>>>>>>>>>>>>>>>>>>>>>>>>>>>>>>>>>>>>>>,8a333OOOOOOOOOOOO",
"WcY7>>>>>>>>>>>>>>>>>>>>>>>>>>>>>>>>>>>>>>>>>7PGJ3aHMCPPPPPPPPPP",
"57,>>>>>>>>>>>>>>>>>>>>>>>>>>>>>>>>>>,,,,,,,,<;sO3QP9,,,,,,,,,,,",
"Hc!K>>>>>>>>>>>>>>>>>>>>>>>>>>>>>>>>f5PPPPPPPPyyyy$i.>>>>>>>>>>>",
"3MPY>>>>>>>>>>>>>>>>>>>>>>>>>>>>>,,,z;sOOOOOZar,,,>>>>>>>>>>>>>>",
"gjnN>>>>>>>>>>>>>>>>>>>>>>>>>>>>9PPPPyyyyyyyyDp>>>>>>>>>>>>>>>>>",
"4nZP,>>>>>>>>>>>>>>>>>>>>>>>>>>,GsOZa8,>>>>>>>>>>>>>>>>>>>>>>>>>",
"4BdPPl>>>>>>>>>>>>>>>>>>>>>>>4NCAFjdSr>>>>>>>>>>>>>>>>>>>>>>>>>>",
">>,gZj>,,,>>>>>>>>>>>>>>>>,,,4nZHPl>>>>>>>>>>>>>>>>>>>>>>>>>>>>>",
">>>gOa555S7>>>>>>>>>>>>>>KS55CjFP9z>>>>>>>>>>>>>>>>>>>>>>>>>>>>>",
",,,yO333O;<,,,,,,,,,,,,,b93OO3APY,>>>>>>>>>>>>>>>>>>>>>>>>>>>>>>",
"SSSH333332GSSSSSSSSSSSSSSdnHtdN9K>>>>>>>>>>>>>>>>>>>>>>>>>>>>>>>",
"OOOOOOOOOOOOOOOOO333333OOqIDr,>>>>>>>>>>>>>>>>>>>>>>>>>>>>>>>>>>",
"3jGGGGGGGGGGGGGGk233333@mAu!p>>>>>>>>>>>>>>>>>>>>>>>>>>>>>>>>>>8",
"2i,>>>>>>>>>>>>,U;O3333nPN>>>>>>>>>>>>>>>>>>>>>>>>>>>>>>>,,,,,,z",
"G.>>>>>>>>>>>>>>KGA~333nPN4>>>>>>>>>>>>>>>>>>>>>>>>>>>>>rcDDDDBI",
">>>>>>>>>>>>>>>>>>R6OOOnPN>,>>>>>>>>>>>>>>>>>>>>>>>>>,,,K@OOOOOO",
">>>>>>>>>>>>>>>>>>ryMMMAjMD0Y<r>>>>>>>>>>>>>>>>>>>>>zBBBDtMMMMMM",
">>>>>>>>>>>>>>>>>>>>>>,POO31^CK,>>>>>>>>>>>>>>>>,,,bSOOOqK>>>>>>",
">>>>>>>>>>>>>>>>>>>>>>>uMW3;WQlz8>>>>>>>>>>>>>>4lBBBPMMMd8>>>>>>",
">>>>>>>>>>>>>>>>>>>>>>>>b92332MP<,,,,,,,,,,,,,,8aOOsG>>>>>>>>>>>",
">>>>>>>>>>>>>>>>>>>>>>>z0d2333n/I00000000000000BtAAAN>>>>>>>>>>>",
">>>>>>>>>>>>>>>>>>>>>>b533OOOOOOOOOOOOOOOOOOOO31z,>>>>>>>>>>>>>>",
">>>>>>>>>>>>>>>>>>>>>i0kO@xAAAAAAAAAAAAAAAAAAe2;PNK>>>>>>>>>>>>>",
">>>>>>>>>>>>>>>>>,,,>jsOsH4>>>>>>>>>>>>>>>>>><;OO3lb,,,>>>>>>>>>",
">>>>>>>>>>>>>>>>R$NNcGVAk54>>>>>>>>>>>>>>>>>>KMVAASNNc9>>>>>>>>>",
">>>>>>>>>>>>>,,,<;O33$>>>>>>>>>>>>>>>>>>>>>>>>>>>4jO3OH4,,,>>>>>",
">>>>>>>>>>>><$llBxjjkv>>>>>>>>>>>>>>>>>>>>>>>>>>>>Sjn6e$lllf>>>>",
",,,,,,,,,,,,tO3O(8>>>>>>>>>>>>>>>>>>>>>>>>>>>>>>>>>>YPA233;9b,,,",
"llllllllllllA6Fjdr>>>>>>>>>>>>>>>>>>>>>>>>>>>>>>>>>>.lCa622yulll",
"333333333332jPu>>>>>>>>>>>>>>>>>>>>>>>>>>>>>>>>>>>>>>>.PG;332333",
"jjjjjjjjje~3mAIli4>>>>>>>>>>>>>>>>>>>>>>>>>>>>>>>>>>>>KC)_333ajj",
"4444444448wO3333Fr,>>>>>>>>>>>>>>>>>>>>>>>>>>>>>>>>>>,KC^133OP>4",
">>>>>>>>>pdeeea36$9r>>>>>>>>>>>>>>>>>>>>>>>>>>>>>>>>8.`Aj;3mel>>",
">>>>>>>>>>444>D332@.>>>>>>>>>>>>>>>>>>>>>>>>>>>>>>>>UCM2332u>>>>"
};
