/* XPM */
static char *_067982e2ee34430e3477d000b5683f4B4uNmxHYj6Eei0RU[] = {
/* columns rows colors chars-per-pixel */
"64 64 214 2 ",
"   c #185D50",
".  c #1D624D",
"X  c #186757",
"o  c #166659",
"O  c #286B4E",
"+  c #216856",
"@  c #226A56",
"#  c #346F55",
"$  c #2B7453",
"%  c #337957",
"&  c #13756A",
"*  c #18726A",
"=  c #13796E",
"-  c #1A786A",
";  c #297968",
":  c #34776C",
">  c #377679",
",  c #435B5F",
"<  c #4D5A65",
"1  c #575A6A",
"2  c #5F5C72",
"3  c #615E76",
"4  c #486165",
"5  c #4C6770",
"6  c #5D6574",
"7  c #67647B",
"8  c #24855A",
"9  c #238E5E",
"0  c #3C8255",
"q  c #23905F",
"w  c #1F9867",
"e  c #168478",
"r  c #248B63",
"t  c #358469",
"y  c #239364",
"u  c #2A9664",
"i  c #229A66",
"p  c #259D67",
"a  c #319964",
"s  c #3A9F64",
"d  c #39966C",
"f  c #298C73",
"g  c #368473",
"h  c #1FA366",
"j  c #1FA56A",
"k  c #1FAC6C",
"l  c #1FB26F",
"z  c #1FB570",
"x  c #1EBC73",
"c  c #21A56B",
"v  c #20AC6D",
"b  c #2CA96A",
"n  c #3CA264",
"m  c #34A868",
"M  c #20B06D",
"N  c #20B470",
"B  c #468955",
"V  c #4A8F56",
"C  c #5E895E",
"Z  c #4E9257",
"A  c #4C975C",
"S  c #559759",
"D  c #549B5A",
"F  c #5AA35C",
"G  c #64AB5D",
"H  c #6CB25F",
"J  c #549E68",
"K  c #4A9870",
"L  c #649D62",
"P  c #45A764",
"I  c #4CAB65",
"U  c #54AC64",
"Y  c #4AB167",
"T  c #55B366",
"R  c #5AB465",
"E  c #5EB966",
"W  c #53A078",
"Q  c #63AD64",
"!  c #67B664",
"~  c #73BB61",
"^  c #6EC367",
"/  c #74C767",
"(  c #7BC463",
")  c #7BCC68",
"_  c #84CD66",
"`  c #87D167",
"'  c #8AD367",
"]  c #84D268",
"[  c #8BD668",
"{  c #8ED869",
"}  c #93DD69",
"|  c #5C7A8A",
" . c #6C6584",
".. c #79658E",
"X. c #746A8C",
"o. c #796D95",
"O. c #6B7E9B",
"+. c #7A7298",
"@. c #7B7CA3",
"#. c #896C99",
"$. c #926E9E",
"%. c #84729D",
"&. c #8D6EA8",
"*. c #966FA2",
"=. c #8573A2",
"-. c #8B78A9",
";. c #9572A2",
":. c #9974A5",
">. c #9575AB",
",. c #9C75AA",
"<. c #9C7AAB",
"1. c #9879B7",
"2. c #A277AD",
"3. c #A27BAE",
"4. c #A67BB7",
"5. c #AB7BB5",
"6. c #B17EBB",
"7. c #1C8D80",
"8. c #1A9A8A",
"9. c #149D92",
"0. c #2C9883",
"q. c #309391",
"w. c #18A59C",
"e. c #22A397",
"r. c #32AB95",
"t. c #1CADA1",
"y. c #19B1A7",
"u. c #15B5AA",
"i. c #14BEB3",
"p. c #1CBCB1",
"a. c #29B3A9",
"s. c #38B9A9",
"d. c #39ABB5",
"f. c #27BCBB",
"g. c #35B5BC",
"h. c #509399",
"j. c #53A68B",
"k. c #4CAA99",
"l. c #52A796",
"z. c #5CB39F",
"x. c #4A98AA",
"c. c #5599AD",
"v. c #5F9AB5",
"b. c #6A88A5",
"n. c #7584A6",
"m. c #649DAE",
"M. c #57B8A7",
"N. c #4AB5B4",
"B. c #12C0B6",
"V. c #13C4BA",
"C. c #13C9BF",
"Z. c #26C7B9",
"A. c #37C9B8",
"S. c #55CAB9",
"D. c #73D2BD",
"F. c #40BEC0",
"G. c #1FC5C2",
"H. c #13CDC4",
"J. c #1ACAC5",
"K. c #16CFC8",
"L. c #0FD0C7",
"P. c #12D0C7",
"I. c #12D1C8",
"U. c #1CD5CA",
"Y. c #23C3C3",
"T. c #29D4C7",
"R. c #22D7CB",
"E. c #2BD5CD",
"W. c #25D8CB",
"Q. c #2CDACC",
"!. c #37D1C8",
"~. c #39D7C8",
"^. c #33DDCE",
"/. c #3ADED1",
"(. c #36E0CF",
"). c #3BE1CF",
"_. c #3CE2D1",
"`. c #4BC7C3",
"'. c #51C1C1",
"]. c #41DCCE",
"[. c #42DED1",
"{. c #67D6C4",
"}. c #77D8C4",
"|. c #78D8C4",
" X c #43E2D2",
".X c #4DE5D5",
"XX c #4FE8D6",
"oX c #53E6D5",
"OX c #59E6D4",
"+X c #5AE9D6",
"@X c #7CE4CF",
"#X c #64E8D5",
"$X c #65EDD9",
"%X c #6BECDA",
"&X c #74F1DD",
"*X c #7CF3DE",
"=X c #8881AB",
"-X c #9D87BF",
";X c #AB82B6",
":X c #AE84B8",
">X c #B384BC",
",X c #B48ABE",
"<X c #AC83C4",
"1X c #A688C8",
"2X c #BB86C4",
"3X c #BA8BC4",
"4X c #BD91C6",
"5X c #C28ECB",
"6X c #C394CC",
"7X c #C69ECE",
"8X c #C89CD0",
"9X c #84ECD7",
"0X c #83F4DF",
"qX c #85F5E0",
/* pixels */
"E.E.E.E.E.E.E.E.E.E.E.E.E.E.E.^.[.oX.X X[.E.E.E.E.E.E.E.E.E.E.E.E.E.E.E.E.E.E.E.E.E.E.E.E.E.E.E.E.E.E.^. X.XoX.X/.^.E.E.E.E.E.E.",
"I.I.I.I.I.I.I.I.I.I.I.I.I.I.I.I.W.).).).^.I.I.I.I.I.I.I.I.I.I.I.I.I.I.I.I.I.I.I.I.I.I.I.I.I.I.I.I.I.I.U.).).).).U.I.I.I.I.I.I.I.",
"I.I.I.I.I.I.I.I.I.I.I.I.I.I.I.I.U.R.Q.).).Q.Q.I.I.I.I.I.I.I.I.I.I.I.I.I.I.I.I.I.I.I.I.I.I.I.I.R.Q.Q.Q.Q.R.R.R.R.I.I.I.I.I.I.I.I.",
"I.I.I.I.I.I.I.I.I.I.I.I.I.I.I.I.I.I.U.).).).).U.I.I.I.I.I.I.I.I.I.I.I.I.I.I.I.I.I.I.I.I.I.I.I.Q.).).).^.K.I.I.I.I.I.I.I.I.I.I.I.",
"I.I.I.I.I.I.I.I.I.I.I.I.I.I.I.I.I.I.R.).).).).Q.Q.Q.Q.Q.Q.Q.Q.Q.Q.Q.Q.Q.Q.Q.Q.Q.Q.Q.Q.Q.Q.Q.E.E.W.W.W.U.I.I.I.I.I.I.I.I.I.I.I.I.",
"I.I.I.I.I.I.I.I.I.I.I.I.I.I.I.I.I.I.R.).).).).).).).).).).).).).).).).).).).)._.).`.N.].`.`.].T.K.Y.f.K.K.I.K.I.I.I.I.I.I.I.I.I.",
"I.I.I.I.I.I.I.I.I.I.I.I.I.I.I.I.U.Q.^.).^.W.R.R.R.R.R.R.R.R.R.R.R.R.R.R.R.W.^./.].b.#.m.n.n.F.g.g.O.b.G.K.K.K.K.K.I.I.I.I.I.I.I.",
"I.I.I.I.I.I.I.I.I.I.I.I.I.I.I.I.W.).).).^.I.I.I.I.I.I.I.I.I.I.I.I.I.I.P.f.G.E./.'.%.$.#.*.;.@.=.%.$.#.c.f.x.Y.K.K.K.I.I.I.I.I.I.",
"I.I.I.I.I.I.I.I.I.I.I.I.I.I.R.Q.W.R.W.W.R.I.I.I.I.I.I.I.I.I.I.I.I.I.I.I.x.+.c.!.N.$.<.<.;.:.,.3.;.;.;.=.@.@.Y.f.d.J.K.I.I.I.I.I.",
"I.I.I.I.I.I.I.I.I.I.I.I.I.I.Q.).W.I.I.I.I.I.I.I.I.I.I.I.I.I.I.I.K.J.I.I.d.#.;.n.v.<.3.3.2.2.2.3.,.;.:.<.;.=Xv.=.@.G.K.I.I.I.I.I.",
"I.I.I.I.I.I.I.I.I.I.I.I.W.Q.W.W.U.I.I.I.I.I.I.I.I.I.I.I.I.I.I.I.K.x.x.g.g.=X3.2.<.;X:X:X,X,X;X;X:X3.,.:.;.;.$.$.b.J.K.I.I.I.I.I.",
"I.I.I.I.I.I.I.I.I.I.I.I.^.).U.I.I.I.I.I.I.I.I.I.I.I.I.I.I.I.I.I.I.x.#.#.n.=X;X:X5.>X,X>X3X3X,X,X>X:X:X,.*.*.;.#.c.K.K.K.I.I.I.I.",
"Q.Q.Q.Q.Q.Q.W.W.Q.Q.Q.Q.(.).U.I.I.I.I.I.I.I.P.I.P.H.H.H.H.H.H.H.H.d.#.:.<.<.;X>X5.2X6X2X2X3X4X4X>X3X3X3.,.2.3.-.N.T.T.E.W.W.Q.W.",
").).).).).).).).).).).).).).U.I.I.I.I.I.I.I.I.I.V.e = = = = = = - > ..;.3.2.2.5.>X2X6X3X2X6X8X7X3X3X>X2.2.;X2.m.!.!.~.~.).).).).",
"W.W.W.W.W.W.W.W.W.Q.).).).).U.I.I.I.I.I.I.H.w.9.8.A Z Z Z Z Z Z Z C 7 ..;.,.,.5.2X5X5X2X2X8X8X6X2X6.5.5.2.,.@.N.A.A.Z.Z.W.W.W.W.",
"I.I.I.I.I.I.I.I.I.U.).).).).U.I.I.I.I.V.i.u.; $ 0 / ) ) ) ) ) ) ) ) L < ..>.>.1.2X6X6X5X2X2X2X<X6.6.6.4.&.o.x.s.s.s.a.t.K.I.I.I.",
"I.I.I.I.I.I.I.I.I.I.W.W.(.).U.P.I.P.H.e X @ ~ ` / a u u u u u u u u u % < ..>.>.4.3X6X6X3X4.1.1.<X<X<X1.+.h.q.h.h.| 6 q.H.I.I.I.",
"I.I.I.I.I.I.I.I.I.I.I.I.^.).U.I.I.V.e I ~ ~ I P n v l l l l l l k k v c t <  .-.>.1.<X3X<X1.1.1X1X1X1X1.O.b.+.X.7 2 5 y.H.I.I.I.",
"I.I.I.I.I.I.I.I.I.I.I.I.^.).Q.W.p.8.A U ! E b j j x x x x x x x x x l M c % <  .-.=.=.>.>.&.1.1X1X-X-.+.o.X. .3 1 5 e.i.H.I.I.I.",
"I.I.I.I.I.I.I.I.I.I.I.I.^.).).A.0.0 / P w i z x x x x x x x x x z z l l k c % 4 X.%.%.+.o.o.=.-.-.+.X. .7 2 1 < > w.i.V.H.I.I.I.",
"I.I.I.I.I.I.I.I.I.I.I.I.^.).~.; A / a v x x x x x x x x x x x z y v z l k j h t 6 X.-.-.+.X.X.X. .7 6 1 < 4 > e.u.i.V.C.P.I.I.I.",
"I.I.I.I.I.I.I.I.I.I.I.I.(.A.f Q U n v x x x x x x x x x x x x z y v x l l k h i % < 7 o.o. .7 6 1 , : > 7.w.u.i.B.V.C.H.P.I.I.I.",
"I.I.I.I.I.I.I.I.I.I.W.Q._.s.. ( ! w x x x x x l v x x x x x x z y v x l l k k h q $ # 4 < 4 # S B   9.y.u.i.i.V.C.H.H.K.I.I.I.I.",
"I.I.I.I.I.I.I.I.I.U.).).!.r.% ( E y x x x x x v i l x x x x x z y v x x l l k c 9 9 i q 9 9 8 F Z $ 8.u.i.V.C.C.H.K.H.H.I.I.I.I.",
"I.I.I.U.W.W.W.W.W.W.W.W.7.0 ` { E i x x x x x x z i v x x x x z y v x x x z k r i h h h h h c 9 A H @ 9.C.C.H.H.H.P.P.I.I.I.I.I.",
"I.I.I.Q.).).).).).^.I.I.e % [ U b z x x x x x x x l c c x x x z y v x x x v i v k k k k k k k y I ( O 9.K.K.H.P.P.I.I.I.I.I.I.I.",
"I.R.W.Q.^.Q.Q.Q.Q.W.H.9.d G [ s j x x x x x x x x x v c v x x z y v x x v c v x x z l l l l l j m U D f w.H.P.I.I.I.I.I.I.I.I.I.",
"I.^.).Q.W.U.I.I.I.I.i.o G } [ s j x x x x x x x x x x l i v x z y v x l p v x x x x x x x x x x k u ] V & H.I.I.I.I.I.I.I.I.I.I.",
"W.Q.^.R.U.I.I.I.I.I.B.o G } [ s j x x x x x x x x x x x z i v z y v v i z x x x x x x x x x x x k a ] V - T.W.W.W.W.W.W.W.W.W.W.",
").Q.W.U.I.I.I.I.I.I.B.o G } [ s j x x x x x x x x x x x x z c i y y c l x x x x x x x x x x x x k a ] V - ~.).).).).).).).).).).",
"^.R.U.I.I.I.I.I.I.I.B.o G } [ s j x x x x x x x x x x z j j i r y r i c c c c c c c v x x x x x k a ] V - T.Q.Q.Q.Q.Q.Q.Q.Q.Q.Q.",
"W.I.I.I.I.I.I.I.I.I.B.o G } [ s j x x x x x x x x z z b s s n a u y y i i i i i i i i z x x x x k a ] V & H.I.I.I.I.I.I.I.I.I.I.",
"Q.U.U.I.I.I.I.I.I.I.B.o G } [ s j x x x x x x x N u y I [ ` [ / u y p x x x x x x x x x x x x x k a ] V & H.I.I.I.I.I.I.I.I.I.I.",
").Q.W.U.I.I.I.I.I.I.B.o G } [ s j x x x l i i w m / ) ] { B G ) u c v p z x x x x x x x x x x x k a ] V & H.I.I.I.I.I.I.I.I.I.I.",
"Q.Q.Q.U.I.I.I.I.I.I.B.o G } [ s w j j j m R R R R D D D Z . D ) u k z c c l x x x x x x x x x x k a ] V & H.I.I.I.I.I.I.I.I.I.I.",
"I.^.).U.I.I.I.I.I.I.B.o G } { I n n n n I ~ ~ ( ! t : ; *   D ) u k x x p c z x x x x x x x x x k a ] V & H.I.I.I.I.I.I.I.I.I.I.",
"I.W.Q.W.R.U.I.I.I.I.B.o G } } [ ` ` ` [ ! @ + @ : @X9XOXi.o D ) u k x x x c i x x x x x x x x x k a ] V & H.I.I.I.I.I.I.I.I.I.I.",
"I.I.I.Q.).W.I.I.I.I.i.o G } { V % % % $ K D.D.D.{.^.^.a.- Q _ ) u k x x x z v i z x x x x x x x k u ] V & H.I.I.I.I.I.I.I.I.I.I.",
"I.I.I.Q.).Q.R.R.R.U.J.k.J D D j.l.l.l.l.M.oXoXoX XR.R.t.. ( ) Y c z x x x x z c c k x x x x x k m E { V & H.I.I.I.I.I.I.I.I.I.I.",
"I.I.I.Q.).).).).).^.R.%Xk.; g {.&X&X&X&XoXI.W.Q.Q.Q.A.r.% _ R w x x x x x x x x c c x x x x x i U { ( J 0.H.I.I.I.I.I.I.I.I.I.I.",
"R.R.R.^.).).).).).).Q.Q.#X9X9X/.Q.Q.Q.Q.Q.Q.&XqX&X^.e 0 ' { T i x x x x x x x x x x x x x x x p T _ $ z.%XI.I.I.I.I.I.I.I.I.I.I.",
").).).).).).).).).+X&X X XXX.X).+X*X*X*X*X*X+X.X.XQ.e 0 [ I b z x x x x x x x x x x x x x z i ! ` _ O M.&XI.I.I.I.I.I.I.I.I.I.I.",
").Q.Q.Q.Q.Q.Q.Q.Q._.+X$X$X$X$X$X$X$X$X$X$X$X X^.T.e.K H [ a j x x x x x x x x x x x x x k b R ` ( J j.S. XI.I.I.I.I.I.I.I.I.I.U.",
").U.I.I.I.I.I.I.I.I.U.%X&X&X&X&X+X).).).).).).Q.Z.X H { / m k x x x x x x x x x x x x z b U { } F @ 9X XL.I.I.I.I.I.I.I.I.I.I.W.",
"Q.I.I.I.I.I.I.I.I.I.I.I.U.U.U.U.R.Q.^.).).).).W.f.X ! / u N x x x x x x x x x x x x z u E { } { F ; @X XI.I.I.I.U.R.R.R.R.R.W.Q.",
"I.I.I.I.I.I.I.I.I.I.I.I.I.I.I.I.I.I.R.).).)._.e.r ~ ' ^ y z x x x x x x x x x x c i p ^ ' } { V W {.^.U.I.I.I.I.^.).).).).).).).",
"I.I.I.I.I.I.I.I.I.I.I.I.I.I.I.I.I.I.U.Q.Q.Q.Q.0.O ' ^ Y v x x x x x x x x l j j Y R ! [ } _ D j.S..XI.^. XR.R.R.Q.Q.Q.Q.Q.Q.Q.Q.",
"I.I.I.I.I.I.I.I.I.I.I.I.I.I.I.I.I.I.I.I.I.P.i.f B ' P w l l l l l l l l l b n n ) } } } _ Q g {.XXI.Q.+X%X_.).).U.I.I.I.I.I.I.I.",
"I.I.I.I.I.I.I.I.I.I.I.I.I.I.I.I.I.I.I.I.I.H.& D { } I u u u u u u u u u u E { { } { ' [ D g @X/.R.Q.*XoXQ.Q.Q.Q.I.I.I.I.I.I.I.I.",
"I.I.I.I.I.I.I.I.I.I.I.I.I.I.I.I.I.I.I.I.I.C.o D } } ] ) ) ) ) ) ) ) ) ) ) ' } } } ! $ $ j.{.^.^.)._..X^.I.I.I.I.I.I.I.I.I.I.I.I.",
"I.I.I.I.I.I.I.I.I.I.I.I.I.I.I.I.I.I.I.I.I.K.k.W F { } } } } } } } } } } } } _ D Z K l.l.S.XXR.oXXXQ.Q.W.I.I.I.I.I.I.I.I.I.I.I.I.",
"I.I.I.I.I.I.I.I.I.I.I.I.I.I.I.I.I.I.I.I.I.U.$XM.t ! ~ ~ ~ ~ ~ ~ ~ ~ ~ ~ ~ ~ Q t : k.*X*X+X).oX%X.XI.I.I.I.I.I.I.I.I.I.I.I.I.I.I.",
"I.I.I.I.I.I.I.I.I.I.I.I.I.I.I.I.I.I.I.I.I.U.W.+X}.; @ @ @ @ @ @ @ @ @ @ @ @ g @X0X#X^.^.^..X0X XR.U.I.I.I.I.I.I.I.I.I.I.I.I.I.I.",
"I.I.I.I.I.I.I.I.I.I.I.I.I.I.I.I.I.I.I.I.U.)._. XoX}.|.|.}.}.}.}.}.}.}.}.}.|.{.^.Q.R.I.I..X&X.X X).Q.I.I.I.I.I.I.I.I.I.I.I.I.I.I.",
"I.I.I.I.I.I.I.I.I.I.I.I.I.I.I.I.U.R.R.R.R.Q.Q.Q.^.XXXXXXXXXXXXXXXXXXXXXXXXXX XI./.oX.XU.^.XXQ.Q.Q.W.R.R.R.U.I.I.I.I.I.I.I.I.I.I.",
"I.I.I.I.I.I.I.I.I.I.I.I.I.I.I.I.W.).).).^.I.I.I.U.Q.Q.Q.Q.Q.Q.Q.Q.Q.Q.Q.Q.^.Q.I.oX&X%XU.I.I.I.I.I.W.).).).^.I.I.I.I.I.I.I.I.I.I.",
"I.I.I.I.I.I.I.I.I.I.I.I.U.U.U.U.W.Q.Q.Q.Q.I.I.I.W.*XqX0X0X0X0X0X0X0X0X0X0XqX%XU.I.I.I.I.I.I.I.I.I.U.Q.^.^.^.R.U.U.U.I.I.I.I.I.I.",
"I.I.I.I.I.I.I.I.I.I.I.I.^.).).).W.I.I.I.I.I.I.I.I.Q.Q.Q.Q.Q.Q.Q.Q.Q.Q.Q.Q.Q.W.I.I.I.I.I.I.I.I.I.I.I.I.U.W.Q.).).).).R.I.I.I.I.I.",
"U.U.U.U.U.U.U.U.U.U.U.R.^.^.^.Q.R.I.I.I.I.I.I.I.I.I.I.I.I.I.I.I.I.I.I.I.I.I.I.I.I.I.I.I.I.I.I.I.I.I.I.I.U.R.^.^.).).Q.U.U.U.U.U.",
").).).).).).).).).).).).Q.W.U.I.I.I.I.I.I.I.I.I.I.I.I.I.I.I.I.I.I.I.I.I.I.I.I.I.I.I.I.I.I.I.I.I.I.I.I.I.I.I.W.W.^.).).).).).).).",
"Q.Q.^.Q.^.Q.Q.Q.Q.^.).).Q.Q.R.U.U.I.I.I.I.I.I.I.I.I.I.I.I.I.I.I.I.I.I.I.I.I.I.I.I.I.I.I.I.I.I.I.I.I.I.I.I.I.W.W.^.).).).^.Q.Q.Q.",
"I.I.I.I.I.I.I.I.I.U.).).).).).).W.I.I.I.I.I.I.I.I.I.I.I.I.I.I.I.I.I.I.I.I.I.I.I.I.I.I.I.I.I.I.I.I.I.I.I.I.I.W.W.^.).).).Q.I.I.I.",
"I.I.I.I.I.I.I.I.I.I.Q.Q.Q.^.^.).Q.U.U.I.I.I.I.I.I.I.I.I.I.I.I.I.I.I.I.I.I.I.I.I.I.I.I.I.I.I.I.I.I.I.I.I.U.U.Q.Q.).).^.Q.R.I.I.I.",
"I.I.I.I.I.I.I.I.I.I.I.I.I.I.Q.).).).Q.I.I.I.I.I.I.I.I.I.I.I.I.I.I.I.I.I.I.I.I.I.I.I.I.I.I.I.I.I.I.I.I.U.W.Q.).).).).R.I.I.I.I.I."
};
