/* XPM */
static char *_5f58225565b4e28bf253c4be6ea621fWjnVqbQ6ZTcdzref[] = {
/* columns rows colors chars-per-pixel */
"64 64 218 2 ",
"   c #1C312A",
".  c #1B3032",
"X  c #262E2F",
"o  c #393E2B",
"O  c #223731",
"+  c #373A38",
"@  c #3E412E",
"#  c #374539",
"$  c #454635",
"%  c #495630",
"&  c #556B34",
"*  c #363C43",
"=  c #145150",
"-  c #315052",
";  c #365354",
":  c #077451",
">  c #28615F",
",  c #076D6D",
"<  c #117A76",
"1  c #2C6F6E",
"2  c #464C42",
"3  c #4B5148",
"4  c #4B5559",
"5  c #4F5658",
"6  c #40695C",
"7  c #61624B",
"8  c #7D7548",
"9  c #7C7549",
"0  c #6B6A53",
"q  c #7B7E52",
"w  c #757858",
"e  c #516664",
"r  c #6F6F6A",
"t  c #867B4C",
"y  c #837C4E",
"u  c #857E50",
"i  c #887F50",
"p  c #1B883E",
"a  c #3E9D31",
"s  c #538B29",
"d  c #699933",
"f  c #57B22C",
"g  c #6FA433",
"h  c #269F57",
"j  c #32A747",
"k  c #118570",
"l  c #2A936E",
"z  c #609E42",
"x  c #6D855D",
"c  c #78845A",
"v  c #7BAB48",
"b  c #5C9978",
"n  c #6B8A63",
"m  c #7E8767",
"M  c #7B9368",
"N  c #679874",
"B  c #639D7A",
"V  c #769975",
"C  c #58B477",
"Z  c #67A27F",
"A  c #7BB37C",
"S  c #62C667",
"D  c #868254",
"F  c #8B8555",
"G  c #8D8857",
"H  c #84855A",
"J  c #868A5C",
"K  c #8E8959",
"L  c #938D5B",
"P  c #96915E",
"I  c #98935F",
"U  c #888C63",
"Y  c #9B9662",
"T  c #9E9965",
"R  c #93966B",
"E  c #9A9B6C",
"W  c #989A76",
"Q  c #A09B67",
"!  c #A29E69",
"~  c #A7A36D",
"^  c #A5A473",
"/  c #A9A771",
"(  c #AEAA74",
")  c #AAAD7B",
"_  c #B0AE76",
"`  c #B2AF78",
"'  c #B6B47C",
"]  c #B9B67E",
"[  c #BAB87F",
"{  c #91DB47",
"}  c #93CB6A",
"|  c #7A7785",
" . c #7B7AA5",
".. c #109990",
"X. c #14A398",
"o. c #25A29D",
"O. c #3DAB94",
"+. c #3AAC99",
"@. c #36B29D",
"#. c #3AB29C",
"$. c #18A8A2",
"%. c #12B6AE",
"&. c #17BCB5",
"*. c #2AB9A9",
"=. c #37B8A3",
"-. c #3CBBA5",
";. c #33BEAA",
":. c #519F81",
">. c #47A287",
",. c #48A287",
"<. c #45A48A",
"1. c #4AA58A",
"2. c #4EAA8D",
"3. c #58A586",
"4. c #50AC8E",
"5. c #43AC94",
"6. c #4CAD92",
"7. c #52AE91",
"8. c #4BB196",
"9. c #44B49B",
"0. c #4AB59A",
"q. c #56B294",
"w. c #58B596",
"e. c #55B79A",
"r. c #5AB798",
"t. c #5DBA9B",
"y. c #67A885",
"u. c #6EAC87",
"i. c #66B491",
"p. c #61BF9E",
"a. c #769DA0",
"s. c #43BBA2",
"d. c #45BBA2",
"f. c #1EC6B9",
"g. c #1BC9BD",
"h. c #2BC0AF",
"j. c #34C1AE",
"k. c #3BC2AC",
"l. c #23C2B3",
"z. c #24C7B8",
"x. c #2DCEBD",
"c. c #34C5B2",
"v. c #38C8B4",
"b. c #3BCAB5",
"n. c #33CDBB",
"m. c #30D0BF",
"M. c #3BD1BD",
"N. c #62C09F",
"B. c #43C3AD",
"V. c #4DC5AB",
"C. c #4EC5AA",
"Z. c #58C4A7",
"A. c #43CBB5",
"S. c #4DCDB3",
"D. c #41CEB8",
"F. c #55CEB2",
"G. c #5ACEB1",
"H. c #44D2BC",
"J. c #65C3A2",
"K. c #68C7A5",
"L. c #6AC9A7",
"P. c #65CAA9",
"I. c #6CCBAA",
"U. c #70CEAC",
"Y. c #71D0AE",
"T. c #15CEC4",
"R. c #19CDC2",
"E. c #0FD1C9",
"W. c #13D0C7",
"Q. c #1CD0C4",
"!. c #12D1C8",
"~. c #1CD5CA",
"^. c #1ED8CC",
"/. c #23CFC2",
"(. c #26D4C6",
"). c #2BD4C4",
"_. c #22D7CB",
"`. c #28D6C8",
"'. c #25D8CB",
"]. c #2CDBCC",
"[. c #38D6C4",
"{. c #32DDCD",
"}. c #37E0CE",
"|. c #3BE1CF",
" X c #3BE2D0",
".X c #44DEC9",
"XX c #87868C",
"oX c #8C8A9C",
"OX c #9ABF90",
"+X c #ACBA85",
"@X c #B4B982",
"#X c #BCBB82",
"$X c #9593BE",
"%X c #A29CB8",
"&X c #89A3B9",
"*X c #AEB0B3",
"=X c #C0BF86",
"-X c #89C69C",
";X c #95C295",
":X c #AACD8B",
">X c #B6C28B",
",X c #C2C187",
"<X c #C4C389",
"1X c #C9C88D",
"2X c #9994C3",
"3X c #A39DC9",
"4X c #ABA6CB",
"5X c #AEAEC8",
"6X c #B2AED5",
"7X c #B8B3D5",
"8X c #BAB4DA",
"9X c #BFBADC",
"0X c #C3BCDE",
"qX c #C5BEE0",
"wX c #BCC4C6",
"eX c #C8C5D4",
"rX c #D4CFE5",
"tX c #E1DCF2",
/* pixels */
"!.!.!.!.!.!.!.!.!.!.!.!.!.!.!.W.~.|.|.|.{._.!.!.!.!.!.!.!.!.!.!.!.!.!.!.!.!.!.!.!.!.!.!.!.!.!.!.!.!.!.!._.|.|.|.|.~.W.!.!.!.!.!.",
"!.!.!.!.!.!.!.!.!.!.!.!.!.!.!.!.~.{.|.|.|.'.W.!.!.!.!.!.!.!.!.!.!.!.!.!.!.!.!.!.!.!.!.!.!.!.!.!.W.W.W.W._.|.|.|.{.~.!.!.!.!.!.!.",
"!.!.!.!.!.!.!.!.!.!.!.!.!.!.!.!.W.~.~.{.|.{.{.'.!.!.!.!.!.!.!.!.!.!.!.!.!.!.!.!.!.!.!.!.!.!.!.!.].{.{.{.].~.~.~.~.W.!.!.!.!.!.!.",
"!.!.!.!.!.!.!.!.!.!.!.!.!.!.!.!.!.!.W.{.|.|.|.].W.W.W.W.W.W.W.W.W.W.W.W.W.W.W.W.W.W.W.W.W.W.W.W.{.|.|.|.].!.!.!.!.!.!.!.!.!.!.!.",
"!.!.!.!.!.!.!.!.!.!.!.!.!.!.!.!.!.!.W.{.|.|.|.}.{.{.{.{.{.{.{.{.{.{.{.{.{.{.{.{.{.{.{.{.{.{.{.{._.~.~.~.~.!.!.!.!.!.!.!.!.!.!.!.",
"!.!.!.!.!.!.!.!.!.!.!.!.!.!.!.!.!.W.W.{.|.|.|.|.|.|.|.|.|.|.|.|.|.|.|.|.|.|.|.|.|.|.|.|.|.|.|.|.~.!.!.!.!.!.!.!.!.!.!.!.!.!.!.!.",
"!.!.!.!.!.!.!.!.!.!.!.!.!.!.!.!.W.].{.|.|.].~.~.~.~.~.~.~.~.~.~.~.~.~.~.~.~.~.{.|.|.|.|.|.{.~.~.W.!.!.!.!.!.!.!.!.!.!.!.!.!.!.!.",
"!.!.!.!.!.!.!.!.!.!.!.!.!.!.!.!.~.{.|.|.|._.!.!.!.!.!.!.!.!.!.!.!.!.!.!.!.!.!.].|.|.|.|.|.{.W.!.W.W.!.!.!.!.!.!.!.!.!.!.!.!.!.!.",
"!.!.!.!.!.!.!.!.!.!.!.!.!.!.~.{.].~.~.~.~.W.!.!.!.!.!.!.!.!.!.!.!.!.!.!.!.!.!.~.~.~.~.~.~.~.].{.{.{.~.!.!.!.!.!.!.!.!.!.!.!.!.!.",
"!.!.!.!.!.!.!.!.!.!.!.!.!.!._.|.{.W.!.!.!.!.!.!.!.!.!.!.!.!.!.!.!.!.!.!.!.!.!.!.!.!.!.!.!.~.{.|.|.|.'.!.!.!.!.!.!.!.!.!.!.!.!.!.",
"!.!.!.!.!.!.!.!.!.!.!.!._.{.].~.~.!.!.!.!.!.!.!.!.!.!.!.!.!.!.!.!.!.!.!.!.!.!.!.!.!.!.!.!.W.~.~.~.~.].{.{.{.].W.!.!.!.!.!.!.!.!.",
"!.!.!.!.!.!.!.!.!.!.!.!.].|.].!.!.!.!.!.!.!.!.!.!.!.!.!.!.!.!.!.!.!.!.!.!.!.!.!.!.!.!.!.!.!.!.!.!.!.].|.|.|.{.W.!.!.!.!.!.!.!.!.",
"{.{.{.{.{.{.{.{.{.{.{.].{.|.].!.!.!.!.!.!.!.!.!.W.!.!.!.!.!.!.!.!.!.!.!.!.!.!.!.!.!.!.!.!.!.!.!.!.!.~.~.~.~._.].{.{.{.{.{.{.{.{.",
"|.|.|.|.|.|.|.|.|.|.|.|.|.|.].!.!.!.!.!.!.!.!.!.!.!.!.!.W.!.!.!.!.!.!.!.!.!.!.!.!.!.!.!.!.!.!.!.!.!.!.!.!.!.~.|.|.|.|.|.|.|.|.|.",
"~.~.~.~.~.~.~.~.~.~.{.|.|.|.].!.!.!.!.!.!.!.!.!.!.!.!.&.< < $.T.!.!.!.!.!.!.!.!.!.!.!.!.!.!.!.!.!.!.!.!.!.!.~.|.|.|.|.].~.~.~.~.",
"!.!.!.!.!.!.!.!.!.!.{.|.|.|.].!.!.!.!.!.!.!.!.!.!.!.&.1 e 5 1 X.T.!.!.!.!.T.$...$.T.!.E.E.E.!.!.!.!.!.!.!.!.~.|.|.|.|._.!.!.!.!.",
"!.!.!.!.!.!.!.!.!.!.~.~.].|.].!.!.!.!.!.!.!.!.!.!.&.1 4 rXrX| - $.T.!.!.T.o.; + ; +.B.A.A.A./.!.!.!.!.!.~.].].~.~.~.~.W.!.!.!.!.",
"!.!.!.!.!.!.!.!.!.!.!.!.].|.].!.!.!.!.!.!.!.!.W.&.> ;  .rX8X6XoX- *.Q.R.o.- oXeX*X2 E ' @X@XC.Q.Q.Q.!.!._.|.{.W.!.!.!.!.!.!.!.!.",
"!.!.!.!.!.!.!.!.!.!.!.!.].|.{.].].W.!.!.!.!.!.&.> XX5X4X2X8X0X4XoXe V V 4 oX4XrX*X+ R #X#X#X+XOX:XG.^.].].~.~.!.!.!.!.!.!.!.!.!.",
"!.!.!.!.!.!.!.!.!.!.!.!.].|.|.|.{.W.!.!.!.!.!.%.O *XtX8X3X4X6X9X7X| r r | 7X9X%X| 0 ^ ' ' ' ' ' ] OXU..X].!.!.!.!.!.!.!.!.!.!.!.",
"!.!.!.!.!.!.!.!.!.!.!.!.].|.|.|.|.].].].[.H.H.B.6 XX5X7XqX2X3X8X6X0X| | 9X&X5Xr $ ^ _ _ _ _ _ _ _ ] >XG.[.!.!.!.!.!.!.!.!.!.!.!.",
"!.!.!.!.!.!.!.!.!.!.!.!.].|.|.|.|.|.|..X-X@X@X) R 3 r 9X6X0X3X$XeX6X7X7X&Xl l - # R ' ' ' ' ' ' ' #X,X>X-XQ.Q.!.!.!.!.!.!.!.!.!.",
"!.!.!.!.!.!.!.!.!.!.'.].{.|. X X.X-X;X;X+X] E % $ X - a.9X8X8X*X} wX9Xa.l X.S C < 2 E ] ' ' ' ] #X=X,X#X@X;XA.E.!.!.!.!.!.!.!.!.",
"!.!.!.!.!.!.!.!.!.W.{.|. X.XY.I.U.+X] ] ] J & s d s z } } :X:X} { } :XA k ..S C < X R ] ' ' #X=X,X,X,X#X#X,X-XS.Q.!.!.!.!.!.!.!.",
"!.!.!.~.].].].].].].'._.).F.@X] ] #X#X#X#XH & s v d d v s g d g { f { v > k j h , X R [ [ [ 1X1X<X,X,X#X#X,X,X>Xx.!.!.!.!.!.!.!.",
"!.!.!.'.|.|.|.|.|.|.~.Q.-X>X,X,X,X,X,X,X,X#XE % o o o o o @ o % f p a s = , : : = 2 ) 1X1X1X1X<X,X=X#X#X#X,X,X>Xx.!.!.!.!.!.!.!.",
"!.'.].].].]._._._.^.k.u.+X,X,X,X,X<X#X' #X,X#X' ^ ^ ^ ^ ^ / ^ H o   O O   . .   # ^ <X1X1X1X<X,X#X#X#X#X#X#X=X#Xy.#.!.!.!.!.!.!.",
"!.].|.{.'._.!.!.R.;.y.L ] <X,X#X#X#X] ' #X,X,X#X#X#X#X#X#X#X#X' U w + * 4 X 4 - $ ` ,X,X,X=X=X#X#X#X#X#X#X#X=X#XL N =.g.!.!.!.!.",
"].].].'.~.W.!.T.h.m u y _ ,X,X' ( ( ' ,X,X,X,X#X#X#X#X#X#X#X#X,X<X#XU 5 5 3 4 4 3 0 ) ,X#X#X#X#X#X#X#X#X#X,X,X#XL F H B.].].].].",
"|.].'.~.!.!.W.:.x F F F T ~ _ ' ' ' [ ,X,X,X#X#X#X#X#X,X#X#X#X#X,X,X,XR 0 W w w m 7 ^ #X#X#X#X#X#X#X#X#X,X<X_ T K D 8 d.].|.|.|.",
"]._.~.W.!.!.W.N t F F F P ! ` ' ' ' #X,X,X,X#X#X#X#X#X,X=X#X#X=X,X<X<X,X#X,X=X#X#X#X#X#X#X#X#X#X#X=X<X1X=X_ ! Y G y 8 s._._._._.",
"'.~.!.!.!.!.Q.B F F F F L T _ ' ' ' #X,X,X,X,X,X,X#X#X,X,X,X,X,X,X<X<X,X,X,X,X<X,X<X<X,X,X,X<X<X<X<X,X,X] Y Y P F c n -.`.!.!.!.",
"{.'.~.~.!.~._.N y F F F F L Y / ' ' #X,X,X,X,X,X,X,X,X,X,X,X,X,X,X,X,X,X,X,X,X,X,X,X,X,X,X,X1X1X1X' T T T Y L F F Z ).v.c.Q.!.!.",
"|.].'.~.!.~.'.N t u u D F F K Y ! ! / #X#X#X,X#X#X#X#X,X,X,X' ' ' ' ' ' ' ' ' ] ,X,X,X#X#X#X( / / ! Y L L Y L J 0.k.c.C.C.Q.!.!.",
"'.].{._.l.z.x.q.N q y u G L L P Y Y ! / ' #X#X#X' ' ] #X#X#X' _ ( ( ( _ ' ' / / [ #X] ( / / Q Y Y Y Y K F L V 3.M.M.C.P.P.n./.!.",
"!.]. X).O.5.-.x.v.n q y L Y Y Y Y Y Y Y ` #X' ' ' ' ' ' ' ' ' ' ( ( _ ' #X#X~ ! / / / T Y Y Y Y Y Y Y F D U 0.`.H.F.L.L.L.L.D.!.",
"!.~.'.).5.1.6.-.v.n.3.8 y F Y Y Y Y Y Y P L T Y L ( ' ' ' ' ' ' ' ' ' ' ] ] #X' T T T Y Y Y Y Y Y L F y n n.M.H.P.P.L.L.L.L.D.!.",
"!.!.!.(.5.1.2.8.s.n.k.6.c t F F G G F F F G Y L F ' <X<X#X' ' ' ' ' ' ' ' ' ( ! F L Y Y Y Y L L L F y 3.d.[.S.Z.J.J.J.K.L.L.D.!.",
"!.!.!.(.5.1.2.2.6.s.v.).:.n F y y y y 8 D F P L L _ #X#X' _ #X#X#X] ' ' ` / T L 8 F P P P P F H V N N v.[.S.Z.p.p.p.p.K.L.L.D.!.",
"!.!.!.(.5.,.1.1.2.2.9.k.).B.R D 8 y y y F F F L Y L L Y Y Q ,X1X1X#X' ' ! F P L 8 u F J J J q n n.).).H.S.t.J.J.J.J.J.K.L.L.D.!.",
"].].].[.8.1.1.1.1.1.6.8.k.v.v.u.L F u 8 D F F F K P Y Y Y Y ~ ! Y P P P L F y D L F q d.v.v.k.v.M.H.H.G.J.p.J.J.K.L.L.J.p.t.k.!.",
"|.|. X[.8.2.1.1.1.1.1.2.9.-.x.C.i.J F y y u F F F L P Y Y Y L F y y y y y t 8 c i.3.1.c.).[.[.[.F.G.G.P.K.J.J.K.J.J.J.t.r.7.;.!.",
"|.].'.).8.2.1.1.1.1.1.1.1.6.-.x.x.N M M q y F F F F K I Y P F u 8 8 8 8 w x x b ).`.).k.B.S.S.F.L.L.L.L.L.L.L.K.J.p.p.w.q.4.;.W.",
"|.~.!.R.8.2.1.1.1.1.1.1.1.2.6.s.j.n.).m.N y u D F F F F F F F u 8 8 8 8 3.).).n.j.;.k.Z.J.Z.K.L.L.L.L.L.L.L.J.p.J.J.J.q.2.4.;.W.",
"'.~.!.R.8.2.2.2.1.1.1.1.,.1.2.6.9.v.n.n.B.d.d.B t F F F F F i y 8 3.s.9.;.c.M.D.Z.Z.Z.K.L.K.J.J.J.J.J.L.K.J.J.J.J.p.q.2.2.2.k.].",
"!.!.!.R.5.2.2.2.1.2.1.>.>.1.q.q.w.C.C.C.n.).).d.B Z Z Z Z Z B B b k.).).v.d.C.Z.J.J.K.L.L.L.K.K.K.J.N.J.J.N.J.J.t.w.7.2.2.2.B. X",
"!.!.!.R.O.,.1.1.1.2.1.>.1.7.J.J.J.J.J.J.C.B.B.n.`.).).).).).).).).v.k.B.C.J.J.J.J.K.L.L.L.L.I.Y.Y.L.J.p.p.J.J.p.7.7.q.7.2.6.k.'.",
"!.!.!.R.O.,.,.1.1.1.1.,.r.N.J.J.J.J.J.J.J.Z.e.d.v.v.c.j.j.j.j.j.v.9.6.e.e.r.J.J.J.J.J.L.K.J.K.K.K.J.J.p.t.7.7.7.2.2.4.2.5.f.T.!.",
"!.!.!.T.l.@.,.,.1.1.1.1.t.K.K.K.K.J.J.K.J.N.w.e.Z.Z.C.0.9.5.5.9.9.6.4.q.q.q.t.t.t.p.J.K.K.J.J.J.t.t.t.q.7.2.2.2.2.2.2.1.5.T.!.!.",
"!.!.!.!.!.z.+.<.1.1.1.,.r.J.K.L.L.K.K.L.K.J.t.J.L.L.J.r.4.,.>.1.2.2.2.q.q.q.q.q.q.t.p.p.p.p.p.p.w.q.q.2.1.2.2.2.2.2.1.5.=.T.!.!.",
"!.!.!.!.!.W.T.#.1.1.1.>.2.q.J.K.L.L.K.J.K.L.L.L.L.J.J.J.q.1.,.>.>.1.1.1.2.4.q.q.q.q.q.q.q.w.q.q.q.q.q.2.1.1.1.1.1.1.1.l.W.!.!.!.",
"!.!.!.!.!.!.W.=.2.1.1.,.7.r.I.K.J.J.K.L.L.L.L.K.J.K.K.J.w.2.1.1.>.,.,.,.1.2.2.4.q.q.7.7.7.q.7.7.7.2.2.2.1.1.1.,.,.#.z.T.!.!.!.!.",
"!.!.!.!.!.!.W.-.4.2.2.1.7.w.J.K.K.t.t.L.L.L.L.L.K.p.t.t.q.2.1.1.>.>.,.1.1.2.1.2.7.7.2.2.7.7.4.2.2.2.1.1.1.1.#.*.=.l.!.!.!.!.!.!.",
"!.!.!.!.!.!.W.=.2.2.2.2.2.7.q.p.K.7.w.L.L.L.K.K.J.q.2.2.2.2.,.>.>.>.1.2.2.2.1.2.2.2.2.2.2.2.2.2.2.2.1.,.<.O.l.!.!.!.!.!.!.!.!.!.",
"!.!.!.!.!.!.W.@.,.,.,.,.2.7.q.7.2.q.t.I.I.L.r.w.w.7.2.2.2.2.,.>.>.>.>.,.1.1.1.1.1.2.2.2.2.2.2.2.2.1.,.>.+.)._.!.!.!.!.!.!.!.!.!.",
"!.!.!.!.!.!.!.f.*.<.1.7.7.q.q.4.2.q.r.p.p.t.w.q.7.4.2.2.2.2.1.1.>.>.>.1.1.1.1.1.1.2.2.1.1.1.1.1.,.#.c.A.M.|.{.W.!.!.!.!.!.!.!.!.",
"!.!.!.!.!.!.!.!.R.=.=.s.8.7.q.4.2.7.q.q.q.q.q.7.2.2.2.2.2.1.1.1.>.>.,.1.1.1.1.1.1.1.1.,.<.@.@.#.@.l.^.].].{.].'.'.'.'.~.!.!.!.!.",
"!.!.!.!.!.!.!.!.!.W.W.T.#.2.q.7.2.2.2.4.2.2.2.2.2.2.2.1.1.1.,.>.<.<.<.<.<.<.<.<.<.<.<.<.=.W.W.W.W.!.!.!.~.'.].|.|.|.|._.!.!.!.!.",
"_._._._._._._._._.'.'._.).v.w.q.q.2.4.q.7.2.2.2.1.2.1.,.,.,.,.#.g.g.g.g.g.g.g.g.g.g.g.g.R.!.!.!.!.!.!.!.W.~._.{.{.|.|.]._._._._.",
"|.|.|.|.|.|.|.|.|.|.|.|.].).v.c.j.*.-.q.7.4.4.2.1.1.,.,.@.*.*.l.!.!.!.!.!.!.!.!.!.!.!.!.!.!.!.!.!.!.!.!.!.!.W.'.'.}.|.|.|.|.|.|.",
"].].].].].].].].].].{.|.{.].]._.~.!.z.d.9.9.9.9.#.+.+.+.l.!.!.!.!.!.!.!.!.!.!.!.!.!.!.!.!.!.!.!.!.!.!.!.!.!.W.'.'.}.|.|.|.{.].].",
"!.!.!.!.!.!.!.!.!.!.{.|.|.|.|.|.{.W.W.T.T.T.T.T.T.T.T.T.W.!.!.!.!.!.!.!.!.!.!.!.!.!.!.!.!.!.!.!.!.!.!.!.!.!.W.'.'.}.|.|.|.].!.!.",
"!.!.!.!.!.!.!.!.!.!.'.].].].{.|.{.'._.W.!.!.!.!.!.!.!.!.!.!.!.!.!.!.!.!.!.!.!.!.!.!.!.!.!.!.!.!.!.!.!.!.W.~.~.].].|.|.{.]._.!.!.",
"!.!.!.!.!.!.!.!.!.!.!.!.!.!._.|.|.|.|.~.!.!.!.!.!.!.!.!.!.!.!.!.!.!.!.!.!.!.!.!.!.!.!.!.!.!.!.!.!.!.!.!.~.'.].|.|.|.|._.!.!.!.!."
};
