/* XPM */
static char *c53428a41aa042d2fa7bb655d0b89d83c9CNT09xRYvhQl4j[] = {
/* columns rows colors chars-per-pixel */
"64 64 234 2 ",
"   c #171224",
".  c #181425",
"X  c #1A1A26",
"o  c #743D39",
"O  c #304D32",
"+  c #2E5839",
"@  c #345A35",
"#  c #3A6B3B",
"$  c #3C753D",
"%  c #5F573D",
"&  c #74453C",
"*  c #437B3B",
"=  c #596B44",
"-  c #517A45",
";  c #607D4A",
":  c #7C7549",
">  c #7C764A",
",  c #757D53",
"<  c #9C2F33",
"1  c #993936",
"2  c #BB2937",
"3  c #CF313D",
"4  c #E7353F",
"5  c #8C593A",
"6  c #E03D45",
"7  c #B3564F",
"8  c #867B4B",
"9  c #837C4E",
"0  c #857E50",
"q  c #987055",
"w  c #B4714F",
"e  c #B67852",
"r  c #897C7D",
"t  c #937A7A",
"y  c #A4696C",
"u  c #B7686A",
"i  c #CE484F",
"p  c #E66A59",
"a  c #C77268",
"s  c #E87C6F",
"d  c #48893F",
"f  c #3E8A48",
"g  c #399D67",
"h  c #3DA774",
"j  c #32AE7C",
"k  c #468949",
"l  c #55894C",
"z  c #439249",
"x  c #48904D",
"c  c #769C4D",
"v  c #798358",
"b  c #4CA14A",
"n  c #54A949",
"m  c #57B34B",
"M  c #5CBB4C",
"N  c #6DB24D",
"B  c #6CBA4C",
"V  c #75B54D",
"C  c #4F9062",
"Z  c #5B9B7B",
"A  c #698D67",
"S  c #778B62",
"D  c #68936D",
"F  c #789268",
"G  c #649A77",
"H  c #759971",
"J  c #70AB6C",
"K  c #5DC957",
"L  c #63C64D",
"P  c #69C14D",
"I  c #63C84D",
"U  c #6BC651",
"Y  c #74C959",
"T  c #55C962",
"R  c #49CC77",
"E  c #7FC765",
"W  c #9C8D4F",
"Q  c #8B9F4E",
"!  c #93974F",
"~  c #868052",
"^  c #8B8555",
"/  c #8E8857",
"(  c #84895C",
")  c #8E8958",
"_  c #918756",
"`  c #928C5A",
"'  c #96915E",
"]  c #98955D",
"[  c #AE8158",
"{  c #84A74E",
"}  c #8AAF56",
"|  c #928B64",
" . c #9A9562",
".. c #9E9A65",
"X. c #9A9968",
"o. c #B58F61",
"O. c #A69B65",
"+. c #A29D69",
"@. c #91AD6D",
"#. c #99BD6C",
"$. c #A5A16C",
"%. c #A9A871",
"&. c #AEAB74",
"*. c #B6A974",
"=. c #B1AE76",
"-. c #B0B173",
";. c #B6B47C",
":. c #B9B67E",
">. c #BAB87F",
",. c #D8996A",
"<. c #D8A46D",
"1. c #C1B16A",
"2. c #CEA973",
"3. c #DBA872",
"4. c #C6B37C",
"5. c #D1B47D",
"6. c #E4A672",
"7. c #E5A976",
"8. c #92C36D",
"9. c #A7C477",
"0. c #178B8A",
"q. c #1CA292",
"w. c #30AB8B",
"e. c #3DAC95",
"r. c #3BAF99",
"t. c #3AB29D",
"y. c #2DBCA8",
"u. c #37BBA6",
"i. c #2BBFB2",
"p. c #499F84",
"a. c #46A389",
"s. c #47A48A",
"d. c #4AA58A",
"f. c #4EAA8D",
"g. c #57A787",
"h. c #51AC8F",
"j. c #40A790",
"k. c #43AB92",
"l. c #4BAD92",
"z. c #52AE91",
"x. c #4BB195",
"c. c #43B59C",
"v. c #4AB59B",
"b. c #56B294",
"n. c #58B496",
"m. c #57B79A",
"M. c #5DBB9B",
"N. c #68A985",
"B. c #60B695",
"V. c #61BE9E",
"C. c #44BBA3",
"Z. c #47BBA2",
"A. c #59BEA0",
"S. c #37C995",
"D. c #1CC5B7",
"F. c #1CCBBE",
"G. c #18D0BD",
"H. c #29C6AF",
"J. c #34C1AF",
"K. c #3BC2AC",
"L. c #22C4B6",
"P. c #27C7B7",
"I. c #2ECEBD",
"U. c #34C5B2",
"Y. c #3CC6B1",
"T. c #33C9B6",
"R. c #3BCAB7",
"E. c #33CDBB",
"W. c #25D0B4",
"Q. c #37D2BE",
"!. c #43C4AD",
"~. c #4CC3A9",
"^. c #58C6A8",
"/. c #46CAB4",
"(. c #54CDB4",
"). c #47D2BA",
"_. c #5ED5B8",
"`. c #65C3A2",
"'. c #68C7A5",
"]. c #6AC9A7",
"[. c #65CAA9",
"{. c #6CCCAA",
"}. c #79CAA5",
"|. c #6BD1B1",
" X c #15CFC5",
".X c #19CCC1",
"XX c #0ED2CA",
"oX c #14D0C5",
"OX c #1CD2C7",
"+X c #12D1C8",
"@X c #1CD4CA",
"#X c #2BD4C4",
"$X c #21D6CA",
"%X c #27D5C8",
"&X c #25D9CB",
"*X c #2CDBCC",
"=X c #32D4C3",
"-X c #39D6C3",
";X c #32D6C9",
":X c #33DECE",
">X c #3CDECD",
",X c #37E0CE",
"<X c #3BE1CF",
"1X c #33E0D0",
"2X c #3BE2D0",
"3X c #43DAC8",
"4X c #43DED3",
"5X c #46E1D2",
"6X c #72E5DF",
"7X c #968281",
"8X c #969494",
"9X c #A6BB85",
"0X c #B4B982",
"qX c #BCBB82",
"wX c #EF959A",
"eX c #C0BE85",
"rX c #D4B889",
"tX c #E1B29C",
"yX c #8AC59B",
"uX c #97C497",
"iX c #B9C687",
"pX c #B2C88E",
"aX c #C2C187",
"sX c #C4C389",
"dX c #C8C78B",
"fX c #C6CE90",
"gX c #E4C095",
"hX c #E8C699",
"jX c #E9CDA1",
"kX c #EAD5AB",
"lX c #A6D7D5",
"zX c #B9F3F0",
"xX c #CCF6F4",
"cX c #E4FCFB",
/* pixels */
"@X@X@X@X@X@X@X@X@X@X@X@X@X@X@X$X*X4X4X>X>X$X@X@X@X@X@X@X@X@X@X@X@X@X@X@X@X@X@X@X@X@X@X@X@X@X@X@X@X@X@X@X*X<X<X2X>X@X@X+X+X+X+X+X",
"+X+X+X+X+X+X+X+X+X+X+X+X+X+X+X+X@X<X<X<X<X@X+X+X+X+X+X+X+X+X+X+X+X+X+X+X+X+X+X+X+X+X+X+X+X+X+X+X+X+X+X+X*X<X<X<X:X+X+X+X+X+X+X+X",
"+X+X+X+X+X+X+X+X+X+X+X+X+X+X+X+X+X@X$X,X<X:X*X@X+X+X+X+X+X+X+X+X+X+X+X+X+X+X+X+X+X+X+X+X+X+X+X+X*X*X*X*X&X@X@X@X@X+X+X+X+X+X+X+X",
"+X+X+X+X+X+X+X+X+X+X+X+X+X+X+X+X+X+X+X:X<X<X<X&X+X+X+X+X+X+X+X+X+X+X+X+X+X+X+X+X+X+X+X+X+X+X+X@X:X<X<X<X&X+X+X+X+X+X+X+X+X+X+X+X",
"+X+X+X+X+X+X+X+X+X+X+X+X+X+X+X+X+X+X+X:X<X<X<X:X*X*X*X*X*X*X*X*X*X*X*X*X*X*X*X*X*X*X*X*X*X*X*X*X$X$X$X$X@X+X+X+X+X+X+X+X+X+X+X+X",
"+X+X+X+X+X+X+X+X+X+X+X+X+X+X+X+X+X+X+X:X<X<X<X<X<X<X<X<X<X<X<X<X<X<X<X<X<X<X<X<X<X<X<X<X<X<X<X:X+X+X+X+X+X+X+X+X+X+X+X+X+X+X+X+X",
"+X+X+X+X+X+X+X+X+X+X+X+X+X+X+X+X@X*X*X<X<X*X$X$X$X$X$X$X$X$X$X$X$X$X$X$X$X$X&X:X<X<X<X<X<X:X$X@X+X+X+X+X+X+X+X+X+X+X+X+X+X+X+X+X",
"+X+X+X+X+X+X+X+X+X+X+X+X+X+X+X+X@X<X<X<X<X@X+X+X+X+X+X+X+XS.R R R R W.+X+X+X+X1XS.h h h Q.*X+X+X+X+X+X+X+X+X+X+X+X+X+X+X+X+X+X+X",
"+X+X+X+X+X+X+X+X+X+X+X+X+X+X@X*X*X$X$X$X$X+X+X+X+X+X+XoXS.T I m * * j W.+X+X+Xy.g $ + + w.I.*X*X*X*X@X+X+X+X+X+X+X+X+X+X+X+X+X+X",
"+X+X+X+X+X+X+X+X+X+X+X+X+X+X&X<X:X+X+X+X+X+X+X+X+X+X+XF.J P M * X . * j W.H.u.C x # . X + w.2X<X<X<X@X+X+X+X+X+X+X+X+X+X+X+X+X+X",
"+X+X+X+X+X+X+X+X+X+X+X+X$X*X&X$X@X+X+X+X+X+X+X+X+X+X+XF.| { * X . . X $ K B [ w { d X . X 0.&X$X$X$X*X*X*X*X&X+X+X+X+X+X+X+X+X+X",
"+X+X+X+X+X+X+X+X+X+X+X+X*X<X*X+X+X+X+X+X+X+X+X+X+X+X+XF.| { $   . .   # I L V V B M d X   0.+X+X+X+X:X<X<X<X*X+X+X+X+X+X+X+X+X+X",
"*X*X*X*X*X*X*X*X*X*X*X*X:X<X*X+X+X+X+X+X+X+X+X+X+X+X+XF.J B n @ .   @ n I L L I L I m @ + q.+X+X+X+X@X$X$X$X&X*X*X*X*X*X*X*X*X*X",
"<X<X<X<X<X<X<X<X<X<X<X<X<X<X*X+X+X+X+X+X+X+X+X+X+X+X+XG.T L I n O O n I L L L I I I M z f j D.+X+X+X+X+X+X+X$X<X<X<X<X2X2X<X<X<X",
"$X$X$X$X$X$X$X$X$X&X:X<X<X<X*X+X+X+X+X+X+X+X+X+X+X+X+XG.T L P B L L L L L L L B N N N k f f j +X+X+X+X+X+X+X$X<X<X<X>X/.Y.3X4X>X",
"+X+X+X+X+X+X+X+X+X+X:X<X<X<X*X+X+X+X+X+X+X+X+X+X+X+X+XG.T I { W L L L L L L P 5 1 1 1 1 - k j  X X X X X X X%X>X>X>X(.u i tXcXzX",
"+X+X+X+X+X+X+X+X+X+X$X&X:X<X*X+X+X+X+X+X+X+X+X+X+X+XXXoXT L B V L I I I c 5 5 < 2 3 3 3 7 7 7 y y y y y y y y u u u u 6 4 8X5X6X",
"+X+X+X+X+X+X+X+X+X+X+X+X*X<X*X+X+X+X+X+X+X+X+X+X+Xi.z.S.K L I I I L I E -.a a a a s s p p 7 q t t r r r t 7X7Xr r r 7XwXwXlX6XlX",
"+X+X+X+X+X+X+X+X+X+X+X+X*X<X:X*X&X+X+X+X+X+X+X+XG.g.W P L L L L I I Y iXkXkXkXkXkXkXjX7.6.] J yXyXR.@X*X&X&X@X+X+XXX*XzXxXxXxXxX",
"+X+X+X+X+X+X+X+X+X+X+X+X*X<X<X<X:X+X+X+X+X+X+XoXR L P L L L L L I I iXkXkXkXkXkXkXkXjX7.6.3.2.:.>.}._.5X&X+X+X+X+X+X+X@X@X@X@X@X",
"+X+X+X+X+X+X+X+X+X+X+X+X*X<X<X<X:X*X*X*X=X-XQ.R K I I L I L L L L L fXkXkXkXkXkXkXkXjX7.6.6.2.&.&.qXpX).%X+X+X+X+X+X+X+X+X+X+X+X",
"+X+X+X+X+X+X+X+X+X+X+X+X*X<X<X<X<X<X<X3XuX9XE Q ! c n L n M I L L I fXkXkXkXkXkXkXkXjX7.6.3.4.;.;.qXsXpX].+X+X+X+X+X+X+X+X+X+X+X",
"+X+X+X+X+X+X+X+X+X+X&X*X:X2X2X2X3X}.yXyX;.#.P [ w 8 b m z m I I L } dXhXhXhXhXhXhXgXrX*.2.4.;.:.qXeXaXeXpX}.I.XX+X+X+X+X+X+X+X+X",
"+X+X+X+X+X+X+X+X+X+X:X<X2X3X_._.{.0X:.:.#.L P W e ! M z f m P B V 2.6.6.6.6.6.6.7.,.q l %.:.qXqXaXaXaXqXqXsX].R.oX+X+X+X+X+X+X+X",
"+X+X+X@X*X&X&X&X&X&X&X&X*X^.0X0X0XqXqXqX#.L L B B P L M z m { e e <.6.6.6.6.6.6.6.O.k k %.qXsXdXaXaXeXqXqXaXaXuXOX+X+X+X+X+X+X+X",
"+X+X+X*X<X<X<X<X<X<X@XOXyXpXeXeXeXeXaXaX*.! P I I L L L z m Q w e <.6.6.6.6.6.6.6.O.f x ;.dXaXsXaXqXqXqXqXaXaXuXOX+X+X+X+X+X+X+X",
"+X$X&X*X:X*X&X&X&X&XK.B.0XaXaXaXaXaXqX>.*.e P L L I I L z m V ! ! <.6.6.6.6.6.6.6.o.= = ;.dXsXaXqXqXqXqXqXqXaX9Xh.H.+X+X+X+X+X+X",
"+X:X<X*X&X@X+X+X.XL.N.] qXaXaXqXqXqX:.;.*.W P L M M M m z m I I U *.3.6.6.6.6.6.6.[ o & X.qXaXqXqXqXqXqXqXqXaX;._ g.H. X+X+X+X+X",
"&X*X:X&X@X@X+X+Xi.S 0 9 ;.aXaX;.&.&.;.aX9.U L U n x x k k m L L U U 1.7.6.6.6.6.6.[ & & - @.qXqXqXqXqXqXqXaXaX;.^ ^ F E.&X*X*X*X",
"<X*X&X@X+X+X Xp.A ^ ^ ^ +.%.;.;.;.;.qXaXiX8.U iX8.#.9Xk % - n E iXY sXgX6.6.6.6.] l ; o.l ..5.qXqXqXqXqXaXaX%...^ 9 v R.:X<X<X<X",
":X$X@X+X+X+X.XA 8 ^ ^ ^ ] +.=.;.;.;.qXaXsXiX8.dX9.9.sX@.| X.@.9.dX9.dXrX5.5.5.5.%.@.@.4.@.=.4.qXqXeXaXsXqX=.+.' ^ 9 , T.&X&X&X&X",
"&X+X+X+X+X+X.XD ^ ^ ^ ^ ' +.;.;.;.;.qXaXaXaXsXaXaXqXqXsXsXaXaXaXaXsXaXaXaXaXaXaXsXaXaXaXsXsXsXsXsXsXsXsX;. . .' ^ v A T.$X+X+X+X",
"*X$X@X+X+X@X%XA 9 ^ ^ ^ ^ ` ..&.:.;.qXaXaXaXaXaXaXaXaXaXaXaXaXaXaXaXaXaXaXaXaXaXaXaXaXaXaXsXdXdXdX=.+.+... .` ^ ^ z.I.J.P.+X+X+X",
"<X*X&X@X+X@X%XD 9 ~ ~ ~ ^ ^ ` ..$.$.=.qXqXqXaXqXqXqXqXaXaXeX;.;.;.;.;.;.;.;.;.qXaXaXaXqXqXqX=.&.&.+. .` '  ._ F v.K.T.^.Y.+X+X+X",
"*X*X:X$XD.P.I.N.F 9 9 0 / ) ) '  . .$.=.;.qXqXqX;.;.qXqXqXqX=.&.&.&.&.=.=.=.%.=.qXqX>.=.&.&... . . . .^ ` ' H g.=XR.~.[.(.I.OX+X",
"+X:X2X#Xa.k.u.#XK., > 0 '  . . . . . ...;.qX;.;.;.;.;.;.;.;.;.;.&.&.=.;.qXqX+.$.&.&.%... . . . . . . .^ ^ ( !.=X).(.].].].[.E.+X",
"+X&X*X#Xs.d.x.K.U.J.Z 8 ~ )  . . . . . . . .+. . .;.;.;.;.;.;.;.;.;.;.;.:.>.qX&.+..... . . . . . .` ^ 8 G Y.Q.).[.[.].].].].E.+X",
"+X+X+X#Xk.d.f.v.u.I.c.Z , 9 ` ` ` ` ) ^ ^ )  .` ` :.aXeXqX;.;.;.;.;.;.;.;.;.;.+.^ '  . . . .' ` ` ^ v Z c.=X/.^.`.`.`.].].].E.+X",
"+X+X+X#Xk.d.f.f.l.u.E.I.D v ~ 9 9 9 9 > ^ )  .` ` :.aXaX;.;.qXqXqX:.;.;.;.&.../ > `  . . .' ^ ( F S D E.-X(.^.V.V.V.`.'.].].E.+X",
"+X+X+X#Xk.d.d.d.f.l.C.Y.I.m. .~ > 9 9 9 ^ ^ ^ `  .` ' ....$.sXdXdXqX;.;...)  .) > ~ ^ ^ / ^ > D E.#XE.).(.V.`.`.`.`.`.].].].E.+X",
"&X&X&X=Xl.d.d.d.d.f.l.v.U.Y.~.H _ ^ 0 > ^ ^ ^ / ` ` ]  . ...%.$.+. . . .` ^ ~ ^ _ 9 v C.C.C.C.K.Q.-X).(.`.V.`.`.'.'.'.`.V.M.P.+X",
"<X<X2X-Xx.f.d.d.d.d.f.f.c.K.#XM.H / 0 9 9 ~ ^ ^ ^ ` ]  . . .' ^ 9 0 0 0 0 9 > S N.G g.I.#X;X;X-X(.(.(.].'.`.`.'.'.'.`.M.m.b.P.+X",
"<X*X*X=Xx.f.d.d.d.d.d.d.f.x.u.I.T.F ( ( > 9 ^ ^ ^ ^ `  . .' ^ 9 : : > > , , , g.%X%X#Xu.!.).).(.].].].].].].].'.V.V.M.n.b.f.P.+X",
"<X@X+XF.x.f.d.d.d.d.d.d.d.f.l.u.U.T.E.Y.S 9 0 ^ ^ ^ ^ / / ^ ^ 9 : : > > f.T.T.U.J.J.K.^.`.^.[.[.].].].].].].`.`.`.`.`.z.h.f.P.@X",
"*X@X+XF.l.f.f.d.d.d.d.d.d.d.f.x.C.E.E.E.v.z.x.D 0 ^ ^ ^ ^ ^ ~ 9 : g.l.l.u.I.=X/.~.~.^.].'.`.`.`.`.`.`.].'.`.`.`.`.M.n.f.f.f.T.&X",
"+X+X+XF.l.f.f.f.d.f.d.a.a.d.b.b.b.~.~.!.=X%X%Xz.D H H H H H D A D U.%X%XY.C./.^.`.`.'.].].].`.`.`.`.`.'.`.V.`.`.V.n.h.f.f.f.).2X",
"+X+X+XF.a.d.d.d.f.f.d.a.a.z.`.`.`.`.`.`.!.Y.Y.E.%X%X#X%X%X%X%X%X#XU.K.Y.^.`.`.`.`.'.].].].].{.|.|.].`.V.`.`.`.M.h.z.n.h.f.l.T.*X",
"+X+X+XF.a.a.a.d.d.f.d.d.m.V.`.`.`.`.`.`.^.^.m.!.U.U.U.U.U.U.U.U.U.v.x.m.m.M.`.`.`.`.'.].'.`.'.'.'.`.`.V.M.b.b.z.f.h.h.d.t.L. X+X",
"+X+X+X.Xy.r.a.d.d.d.d.d.V.`.'.'.'.`.`.'.`.V.n.A.~.~.C.C.c.t.t.c.c.l.h.n.n.n.M.M.M.`.`.'.`.`.`.`.M.M.M.n.b.f.f.f.f.f.f.d.t.+X+X+X",
"+X+X+X+X+Xi.j.a.d.d.d.d.M.`.].].].`.'.].'.`.m.`.].].`.n.f.a.a.d.f.f.h.b.n.n.n.n.n.V.`.`.`.`.`.M.n.n.n.f.f.f.f.f.f.f.f.l.u.+X+X+X",
"+X+X+X+X+X XF.r.d.d.d.a.f.n.`.'.].].'.`.'.].'.].].`.`.`.z.d.a.a.a.d.f.f.f.h.n.n.n.n.n.n.n.n.n.n.n.n.n.f.d.d.d.d.d.d.k.D. X+X+X+X",
"+X+X+X+X+X+XoXt.d.d.d.a.z.M.{.'.'.'.'.'.].].].'.'.'.'.`.b.f.d.d.a.a.d.a.d.f.f.z.n.z.z.z.b.n.z.z.z.h.f.d.d.d.d.a.a.u.L. X+X+X+X+X",
"+X+X+X+X+X+X Xc.f.f.d.d.z.M.'.'.`.M.`.].].].].'.`.`.V.M.b.f.d.d.a.a.a.d.d.f.d.f.b.h.f.f.z.b.h.f.f.f.d.d.d.d.r.t.t.L.+X+X+X+X+X+X",
"+X+X+X+X+X+X Xc.f.f.f.f.f.z.n.`.'.f.m.].].].'.'.`.z.f.f.f.f.a.a.a.a.d.f.f.f.d.f.f.f.f.f.f.f.f.f.f.f.d.a.a.j.D.+X+X+X+X+X+X+X+X+X",
"+X+X+X+X+X+X Xr.a.d.a.d.f.z.n.z.z.b.V.{.{.'.M.m.n.h.f.f.f.f.a.a.a.a.a.a.d.f.d.d.f.f.f.f.f.f.f.f.f.d.a.a.t.#XOX+X+X+X+X+X+X+X+X+X",
"+X+X+X+X+X+X+XL.u.a.d.h.z.b.n.f.f.n.M.`.`.M.n.b.z.h.f.f.f.f.d.a.a.a.a.d.d.d.d.d.d.f.f.d.d.d.d.d.d.t.K.!.Q.2X*X+X+X+X+X+X+X+X+X+X",
"+X+X+X+X+X+X+X+XF.r.c.v.b.b.n.f.f.b.b.b.b.b.b.z.f.f.f.f.f.d.d.d.a.a.a.d.d.d.d.d.d.d.d.a.a.r.r.r.r.L.&X*X:X:X*X@X@X@X@X+X+X+X+X+X",
"+X+X+X+X+X+X+X+X+X X X.Xe.f.n.f.f.f.f.h.f.f.f.f.f.f.f.d.d.d.a.a.a.a.a.a.a.a.a.a.a.a.a.a.y. X X X X+X+X+X@X&X*X<X<X<X,X@X+X+X+X+X",
"@X@X@X@X@X@X@X@X@X@X@X@XE.!.n.b.z.d.h.b.h.f.f.f.f.f.d.a.a.a.a.t.L.L.L.L.L.L.L.L.L.L.L.L..X+X+X+X+X+X+X+X@X$X&X:X:X<X<X&X@X@X@X@X",
"<X<X<X<X<X<X<X<X<X<X<X<X*X=XK.u.u.u.c.n.z.h.h.f.d.d.a.a.r.u.u.L.+X+X+X+X+X+X+X+X+X+X+X+X+X+X+X+X+X+X+X+X+X+X@X&X*X<X<X<X<X<X<X<X",
":X:X:X:X:X:X:X:X:X:X<X<X:X*X&X@X@X+XU.v.v.x.x.k.k.j.j.e.L.+X+X+X+X+X+X+X+X+X+X+X+X+X+X+X+X+X+X+X+X+X+X+X+X+X@X&X*X<X<X<X<X:X*X*X",
"+X+X+X+X+X+X+X+X+X+X:X<X<X<X<X<X*X+X X.X.X.X.X.X.X.X.X.X X+X+X+X+X+X+X+X+X+X+X+X+X+X+X+X+X+X+X+X+X+X+X+X+X+X@X&X*X<X<X<X<X$X+X+X",
"+X+X+X+X+X+X+X+X+X+X*X:X:X:X:X<X:X@X@X+X+X+X+X+X+X+X+X+X+X+X+X+X+X+X+X+X+X+X+X+X+X+X+X+X+X+X+X+X+X+X+X+X+X+X@X*X*X<X<X:X*X@X+X+X",
"+X+X+X+X+X+X+X+X+X+X+X+X+X+X&X<X<X<X:X+X+X+X+X+X+X+X+X+X+X+X+X+X+X+X+X+X+X+X+X+X+X+X+X+X+X+X+X+X+X+X+X+X@X&X*X<X<X<X<X@X+X+X+X+X"
};
