/* XPM */
static char *c582efb9787d42b986b4cde379daa99e9jrifZlEOfgOJJ6l[] = {
/* columns rows colors chars-per-pixel */
"64 64 233 2 ",
"   c #160F24",
".  c #181525",
"X  c #1A1926",
"o  c #1E2228",
"O  c #753C39",
"+  c #2E4F35",
"@  c #325635",
"#  c #35673B",
"$  c #6C4A3C",
"%  c #437E3D",
"&  c #387341",
"*  c #6D5A42",
"=  c #4F7845",
"-  c #62774C",
";  c #7B7549",
":  c #7D774A",
">  c #747D53",
",  c #9D2E33",
"<  c #9B3636",
"1  c #BD2B38",
"2  c #D2343E",
"3  c #8F5339",
"4  c #E33942",
"5  c #B9524E",
"6  c #8E614A",
"7  c #857A4B",
"8  c #837C4E",
"9  c #847E50",
"0  c #887F50",
"q  c #B57251",
"w  c #827261",
"e  c #AE6166",
"r  c #B66467",
"t  c #C94F55",
"y  c #E6745E",
"u  c #C97F71",
"i  c #46853E",
"p  c #3E8A48",
"a  c #309F6F",
"s  c #2EA77E",
"d  c #468847",
"f  c #438B4A",
"g  c #479547",
"h  c #55974E",
"j  c #78865A",
"k  c #6D9558",
"l  c #4EA34A",
"z  c #54AA49",
"x  c #59B64B",
"c  c #5BA852",
"v  c #68B74A",
"b  c #6DBD4D",
"n  c #75B54E",
"m  c #6FAE50",
"M  c #509A76",
"N  c #6B8B65",
"B  c #758D64",
"V  c #68956B",
"C  c #769269",
"Z  c #659874",
"A  c #749B73",
"S  c #71A576",
"D  c #3CC17F",
"F  c #5DC451",
"G  c #63C64D",
"H  c #68C44E",
"J  c #63C84D",
"K  c #6AC755",
"L  c #7DC55D",
"P  c #4ECA6C",
"I  c #55C766",
"U  c #7FCA60",
"Y  c #9B874F",
"T  c #8B944E",
"R  c #878152",
"E  c #8B8555",
"W  c #888859",
"Q  c #8E8958",
"!  c #948657",
"~  c #928C5A",
"^  c #96915E",
"/  c #99955D",
"(  c #AB8453",
")  c #85A54E",
"_  c #80BE5C",
"`  c #90B357",
"'  c #848D63",
"]  c #978269",
"[  c #9A9562",
"{  c #949862",
"}  c #9E9965",
"|  c #A49C66",
" . c #A29D69",
".. c #B59163",
"X. c #94AF66",
"o. c #A6A26C",
"O. c #A7AE71",
"+. c #AEAB74",
"@. c #B1AE77",
"#. c #B7AC77",
"$. c #A7B777",
"%. c #B6B47C",
"&. c #B9B67E",
"*. c #B8BA7B",
"=. c #D0916F",
"-. c #E98B78",
";. c #CBA66C",
":. c #CEAF78",
">. c #DFAA75",
",. c #E4A672",
"<. c #E4AA76",
"1. c #E8AD7C",
"2. c #86C864",
"3. c #97CA70",
"4. c #A9C779",
"5. c #158A8A",
"6. c #1DAF9B",
"7. c #28AC86",
"8. c #2CB68D",
"9. c #3EAA93",
"0. c #39AE99",
"q. c #3AB19B",
"w. c #2BBBAA",
"e. c #37B9A6",
"r. c #2EBDB7",
"t. c #778887",
"y. c #788888",
"u. c #48A487",
"i. c #46A38A",
"p. c #4AA68A",
"a. c #4EAA8D",
"s. c #56A586",
"d. c #50AC8F",
"f. c #42AC93",
"g. c #4BAE93",
"h. c #40AF98",
"j. c #52AE91",
"k. c #43B49C",
"l. c #4AB499",
"z. c #56B294",
"x. c #58B496",
"c. c #56B79A",
"v. c #5DBA9B",
"b. c #68AC89",
"n. c #66B492",
"m. c #61BF9F",
"M. c #45BCA3",
"N. c #59BEA1",
"B. c #3DCE88",
"V. c #1AC2AD",
"C. c #1AC6B7",
"Z. c #1FC6B9",
"A. c #1CCABD",
"S. c #1ED0B7",
"D. c #29CFA6",
"F. c #34C1AE",
"G. c #3CC2AC",
"H. c #24C4B6",
"J. c #28C5B5",
"K. c #2DCEBD",
"L. c #34C5B2",
"P. c #39C9B4",
"I. c #39CAB5",
"U. c #33CDBA",
"Y. c #3BD2BE",
"T. c #44C4AC",
"R. c #49C3A9",
"E. c #57C5A8",
"W. c #48CAB2",
"Q. c #56CDB1",
"!. c #46D2BA",
"~. c #65C3A2",
"^. c #68C7A5",
"/. c #6AC9A7",
"(. c #64C8A8",
"). c #65CAA9",
"_. c #6CCBA9",
"`. c #74CBA8",
"'. c #68D2B3",
"]. c #15CEC4",
"[. c #19CDC2",
"{. c #0ED3CA",
"}. c #14D0C5",
"|. c #1AD1C6",
" X c #12D1C8",
".X c #1DD5CA",
"XX c #1FD8CC",
"oX c #2BCFC0",
"OX c #2BD3C4",
"+X c #21D7CB",
"@X c #28D5CA",
"#X c #25D9CB",
"$X c #2CDBCD",
"%X c #32D3C2",
"&X c #38D7C5",
"*X c #32D6CE",
"=X c #34DECE",
"-X c #37E0CE",
";X c #3BE1CF",
":X c #3AE2D0",
">X c #46DCC7",
",X c #46E1D3",
"<X c #6CE2DD",
"1X c #8A8D8B",
"2X c #8E908B",
"3X c #90B398",
"4X c #A5BB88",
"5X c #B2B780",
"6X c #B5BB81",
"7X c #BCBB82",
"8X c #B6BF88",
"9X c #C2BE85",
"0X c #CBBD84",
"qX c #E4B68A",
"wX c #E7BC8D",
"eX c #DAB8BA",
"rX c #F2A3A7",
"tX c #8AC69B",
"yX c #95C398",
"uX c #AAC38F",
"iX c #BCC487",
"pX c #BED08C",
"aX c #C2C187",
"sX c #C4C389",
"dX c #C9C88D",
"fX c #CBCC95",
"gX c #E9CDA1",
"hX c #EAD5AB",
"jX c #A1DDDA",
"kX c #A9EEEB",
"lX c #AFF3EF",
"zX c #B5F1EE",
"xX c #E6FCFB",
/* pixels */
" X X X X X X X X X X X X X X|.XX#X;X;X=X=XXX X X X X X X X X X X X X X X X X X X X X X X X X X X X X X X#X;X;X:X=XXX.X X X X X X",
" X X X X X X X X X X X X X X X XXX;X;X;X;XXX X X X X X X X X X X X X X X X X X X X X X X X X X X X X X X#X;X;X;X=X X X X X X X X",
" X X X X X X X X X X X X X X X X XXX+X;X;X=X$XXX X X X X X X X X X X X X X X X X X X X X X X X X$X$X=X=X#XXXXXXX.X X X X X X X X",
" X X X X X X X X X X X X X X X X X X X=X;X;X;X#X X X X X X X X X X X X X X X X X X X X X X X X.X-X;X;X;X@X X X X X X X X X X X X",
" X X X X X X X X X X X X X X X X X X X=X;X;X;X=X$X$X$X$X$X$X$X$X$X$X$X$X$X$X$X$X$X$X$X$X$X$X$X$X+XXXXXXX|. X X X X X X X X X X X",
" X X X X X X X X X X X X X X X X X X|.=X;X;X;X;X;X;X;X;X;X;X;X;X;X;X;X;X;X;X;X;X;X;X;X;X;X;X;X=X X X X X X X X X X X X X X X X X",
" X X X X X X X X X X X X X X X X.X$X=X;X;X#XXXXXXXXXXXXXXXXXXXXXXXXXXXXXXXXX+X-X;X;X;X;X;X=XXXXX X X X X X X X X X X X X X X X X",
" X X X X X X X X X X X X X X X XXX;X;X;X;XXX X X X X X X X X X X X X X X X X X=X;X;X;X;X;X$X X X X X X X X X X X X X X X X X X X",
" X X X X X X X X X X X X X XXX$X#X+XXXXXXXA.7.7.7.V. X X X X XS.B.B.B.B.D. X XXXXXXXXXXXXX#X$X$X$X$X|. X X X X X X X X X X X X X",
" X X X X X X X X X X X X X X#X;X$X X X XA.7.& # & a V. X X XS.8.g g x J P D.|. X X X X X XXX;X;X;X;XXX X X X X X X X X X X X X X",
" X X X X X X X X X X X X#X$X#X+XXX X X X6.# X . # d M J.A.S.D % X X i v H I |. X X X X X X X+X+X+X+X#X$X$X$X+X X X X X X X X X X",
" X X X X X X X X X X X X$X;X#X X X X X X5.X . X i ) q ! b F & X . . o i ) ] [. X X X X X X X X X X X=X;X;X;X$X X X X X X X X X X",
"$X$X$X$X$X$X$X$X$X$X$X$X=X;X#X X X X X X5.  X i x b n n H J #   . .   % ) ] [. X X X X X X X X X X XXX+X+X+X#X$X$X$X$X$X$X$X$X$X",
";X;X;X;X;X;X;X;X;X;X;X;X;X;X#X X X X X X6.+ @ x J J J J J J l @   . @ z n S [. X X X X X X X X X X X X X X X+X;X;X;X;X;X;X;X;X;X",
"+X+X+XXXXXXXXX+X+X+X=X;X;X;X#X X X X XC.s p f x J J J H J J J l + @ z J G I }. X X X X X X X X X X X X X X X+X;X;X;X;X#X+X+X+X+X",
" X X@X*X%Xr.r.]. X X=X;X;X;X#X X X X X7.p d d m m m v J J J J J J J b H G I }.{. X X X X X X X X X X X X X X+X;X;X;X;X.X X X X X",
" X+XlXxXeXt t e.].[.@X@X&X>XOX].[.[.[.s d = < < < < 3 b H J J J J H Y ) J I P.P.P.P.P.P.P.U.|. X X X X X+X$X#X+X+X+X+X X X X X X",
"@XkX<X,X3X4 4 r e e e e r r r e e e e 5 5 5 2 2 2 1 , 3 3 m J J J H n b J K 4X5X5X5X5X5X5X4XK.|.|.|. X X#X;X$X X X X X X X X X X",
"*XxXkXjXjXrXrX2Xt.y.y.y.1X2X2X2X1Xy.y.w q y y -.-.=.=.u =.%.2.J J J J J J K _ ..#.7X7X7X7X7X3XyXyXP.+X#X#X+XXX X X X X X X X X X",
"@XkXzXzXzXzXkX$X{.{.{.{.$X:X:X:X$X X{.p.} ,.<.gXhXhXhXhXhXhXpXU J J J J J J H T X.$.&.&.%.%.%.&.&.`.'.,X+X X X X X X X X X X X X",
" X X X X X X X X X X X X$X;X;X;X=X#X#X3X,.,.<.gXhXhXhXhXhXhXhXpXH J J J J J J H J _ O.+.+.+.+.+.+.7XuX!.@X X X X X X X X X X X X",
" X X X X X X X X X X X X$X;X;X;X;X;X;XyX,.,.<.gXhXhXhXhXhXhXhXpXH J J J J J J J H H _ %.%.%.&.&.&.7XiXuX). X X X X X X X X X X X",
" X X X X X X X X X X#X#X=X:X:X:X>XtXtX4X:.,.<.gXhXhXhXhXhXhXhXpXH J J J x l F l T ( T _ %.&.&.&.7XaXaX9XuX`.oX{. X X X X X X X X",
" X X X X X X X X X X=X;X:X>X'.'.`.5X&.&.:.#./ ;.qXwXwXwXwXwXwX:.X.H J J z f l z Y q Y H _ $.7X7XaXaXaX7X9XiX).U.|. X X X X X X X",
" X X X+X#X#X#X#X#X#X#X#X$X).&.&.6X7X7X7X7XO.d 7 =.,.,.,.,.,.,.,.>.) n b z f g F ) Y T H J $.dXdXaXaX9X7X7XaXaXyX|. X X X X X X X",
" X X X#X;X;X;X;X;X-X X|.tXuX9X9X9X9XaXaXaX$.f f | ,.,.,.,.,.,.,.,.q q ) z g G H J H H H b 4.sXsXaX7X7X7X7XaXaXyX|. X X X X X X X",
" X+X#X$X=X#X#X#X#X+XG.n.8XaXaXaXaXaX7X&.aX$.f f | ,.,.,.,.,.,.,.,.q q ) z g G H J J J b ( :.sXaX7X7X7X7X7X7XaX4Xd.J. X X X X X X",
" X=X;X$X#XXX X X[.J.S / 7XaXaX9X7X7X&.%.9X@.* $ ..,.,.,.,.,.,.,.;.) n b z g J J J J J b q #.aX7X7X7X7X7X7X7XaX%.E s.H.]. X X X X",
"#X$X=X+XXX|. X Xe.W 9 9 &.aXaX%.+.+.&.aX$.j $ O ..,.,.,.,.,.,.;.` H J J z f l l l x J H ) @.7X7X7X7X7X7X7XaXaX%.E E C U.#X#X#X#X",
";X#X#X.X X X].M N E R E  .+.%.%.%.%.7X0XX.= 6 * ! ;.,.,.,.,.1.*.K 2.K x h = f V h m 2.J L $.7X7X7X7X7X7XaXaX+.} E 8 j U.=X;X;X;X",
"$X+X.X X X X[.N 7 E E E [  .@.%.&.&.7X:.| k ;.k h { <.>.>.>.wXpX2.fX2.c - * h fX3.4.fXL *.7X7X7X7X9XsXsX7X@. .^ E 8 > U.#X#X#X#X",
"#X X X X X X[.C R E E E ^  .%.&.&.&.7XaX7X6X9X6X5X&.9X9X9X9XsXsXiXsXiX6X6X&.6XsXiXiXsXiXaXaXsXsXsXsXsXsX@.[ [ ^ E j N U.XX X X X",
"$X+XXX X X.XOXN 7 E E E E ~ } @.&.&.7XaXaXaXaXaXaXaXaXaXaXaXaXaXaXaXaXaXaXsXaXaXaXaXaXaXaXsXdXdXdX+. . .} [ ~ E E j.K.F.J. X X X",
";X#X#X.X X.XOXC 8 R R R E E ~  .o.o.@.7X7X7XaX7X7X7X7XaXaX7X&.%.%.%.%.%.%.%.%.7XaXaXaX7X7X7X@.+.+. .^ ~ ^ [ ! C l.G.L.E.P. X X X",
"#X$X=X+XZ.K.K.b.C : 8 9 Q ~ ~ ^ [ [ o.@.&.7X7X7X&.&.7X7X7X7X@.+.+.+.+.@.%.@.o.@.7X7X&.+.+.+.} [ [ [ [ E ~ ^ A s.%XP.R./.Q.K.|. X",
" X=X:XoXi.h.e.OXe.> : 9 ^ [ [ [ [ [ [ } &.7X&.%.%.&.&.&.&.&.&.%.+.+.@.&.7X7X .o.+.+.o.} [ [ [ [ [ [ ^ E W ' G.%X!.Q./././.).K. X",
" X+X#XoXi.p.g.G.L.L.Z 7 R Q [ [ [ [ [ [ ^ [  .[ [ %.&.&.&.&.&.&.%.%.&.&.&.&.7X+.} } } [ [ [ [ [ [ ~ E 7 Z P.Y.!.).)././././.K. X",
" X X XOXi.p.a.l.e.K.k.s.> 8 Q Q Q Q Q E E Q [ ~ ~ 7XaX9X7X&.&.&.&.&.&.&.&.&.@.} E ^ [ [ [ [ ~ ~ ~ R j s.M.%XW.E.~.~.~./././.K. X",
" X X XOXi.p.a.a.g.M.U.U.V j R 8 8 8 : : R Q ^ ~ ~ &.9XaX%.%.7X7X7X&.&.&.@.+.} E ; ~ [ ^ ^ ^ E W C N Z %X&XQ.E.m.m.m.~././._.K. X",
" X X XOXi.p.p.p.a.g.M.L.OXc.{ 9 : 8 8 8 E E E ~ [ ~ ^ } } o.sXdXsX&.&.&.} Q [ E : R E W W E : Z OXOX%X!.Q.m.~.~.~.~.~./././.K. X",
"#X#X#X%Xg.p.p.p.p.a.g.k.L.L.R.A ! E 8 : R E E Q ~ ^ [ [ [ } o.o.} [ [ [ ~ E 9 E ~ 7 j M.T.T.e.G.Y.Y.!.Q.).m.~.~.^.^.^.~.m.v.K. X",
";X;X:X&Xg.a.p.p.p.p.a.a.k.G.K.v.S W 9 8 8 R E E E ~ ^ [ [ [ ~ E 8 8 9 9 8 8 ; B b.Z p.K.OX*X*X&XQ.Q.Q._.^.~.~.^.^.^.~.v.x.z.H. X",
";X$X#X%Xg.a.p.p.p.p.p.p.a.l.e.K.P.C ' ' : 8 E E E E ~ [ [ ^ E 8 ; ; ; ; > > > s.@X@XOXe.W.W.!.Q./././././././.^.m.m.v.x.j.a.H. X",
";X.X XA.g.a.p.p.p.p.p.p.p.a.g.e.L.U.U.P.B 7 8 R E E E E E E E 8 ; ; ; ; g.U.U.L.F.F.G.).~.E.).)././././././.~.~.~.~.~.j.d.a.H..X",
"#X X XA.g.a.a.p.p.p.p.p.p.p.d.g.M.U.U.U.k.l.l.C 0 E E E E R 0 7 ; s.g.g.G.K.%XW.E.E.E./.^.~.~.~.~.~.~./.^.~.~.~.~.v.x.a.a.a.U.#X",
" X X XA.g.a.a.p.p.a.p.u.u.a.z.z.c.R.R.T.%XOXOXj.V A A A A A V V Z L.OXOXL.M.W.E.~.^.^./././.~.~.~.~.~.^.~.m.~.~.m.z.d.a.a.a.!.:X",
" X X XA.i.p.p.p.a.a.p.u.i.j.~.~.~.~.~.~.T.T.G.U.OXOXOXOXOXOXOXOX@XL.G.T.E.~.~.~.~.^././././.`.`.`.^.~.m.~.~.~.v.d.z.z.d.a.g.U.#X",
" X X XA.i.u.i.p.p.a.p.p.v.m.~.~.~.~.~.~.E.E.c.G.L.L.L.L.L.L.L.L.L.k.l.c.c.v.~.~.~.~.^./.^.~.^.^.^.~.~.m.v.z.z.j.a.d.d.p.q.A.]. X",
" X X X].w.0.u.p.p.p.p.p.m.~.^.^.^.~.~.^.~.m.z.N.E.E.M.k.k.q.q.k.k.g.j.z.z.x.v.v.v.~.~.^.~.~.~.~.v.v.v.x.j.a.a.a.a.a.a.p.e. X X X",
" X X X X Xw.9.i.p.p.p.p.v.~./././.~.^./.^.~.x.~././.~.x.a.u.u.p.a.a.d.z.z.z.z.z.z.m.~.~.~.~.~.v.z.z.z.a.a.a.a.a.a.a.p.f.w. X X X",
" X X X X X].A.h.p.p.p.i.a.x.~.^././.^.~././.^././.~.~.~.j.p.u.u.i.p.p.p.a.j.z.z.z.x.x.x.x.x.x.x.z.z.z.a.p.p.p.p.p.p.f.A.]. X X X",
" X X X X X X].k.a.p.p.i.j.v._.^.~.^.^.^./././.^.^.^.^.~.z.a.p.p.u.i.p.i.p.a.a.j.z.j.j.j.z.z.j.j.j.d.a.p.p.p.p.i.i.e.H.]. X X X X",
" X X X X X X].k.a.a.p.p.j.v.^.^.~.v.~././././.^.~.m.v.v.j.a.p.p.u.u.i.p.p.a.p.a.z.d.a.a.j.z.d.a.a.a.p.p.p.p.0.q.q.H. X X X X X X",
" X X X X X X].k.a.a.a.a.a.j.x.~.~.a.v._././.^.^.~.j.a.a.a.a.u.u.u.u.p.a.a.a.p.a.a.a.a.a.a.a.a.a.a.a.p.u.i.9.Z. X X X X X X X X X",
" X X X X X X].9.i.i.i.p.a.j.z.j.j.z.m._._.^.x.x.x.d.a.a.a.a.u.u.u.u.u.i.p.p.p.p.a.a.a.a.a.a.a.a.p.p.i.u.e.OX.X X X X X X X X X X",
" X X X X X X XH.e.u.p.d.j.z.z.a.a.z.v.m.m.v.z.z.j.a.a.a.a.a.p.i.u.u.i.p.p.p.p.p.p.a.a.p.p.p.p.p.p.e.G.T.Y.:X#X X X X X X X X X X",
" X X X X X X X XA.0.k.M.z.z.z.a.a.z.z.z.z.z.z.j.a.a.a.a.a.p.p.i.u.u.i.p.p.p.p.p.p.p.p.u.f.0.q.q.0.H.#X$X=X=X$XXXXXXXXX X X X X X",
" X X X X X X X X X]. XA.f.a.z.a.a.a.a.d.a.a.a.a.a.a.a.p.p.p.u.u.i.i.i.i.i.i.i.i.i.i.i.i.w. X].].]. X X XXX#X$X;X;X;X-X|. X X X X",
"XXXXXXXXXXXXXXXXXXXXXX+XK.T.z.z.j.p.d.z.d.a.a.a.a.a.p.i.i.u.u.e.Z.Z.Z.Z.Z.Z.Z.Z.Z.Z.Z.Z.[. X X X X X X X.X+X#X=X=X;X;X#XXXXXXXXX",
";X;X;X;X;X;X;X;X;X;X;X;X$X%XG.G.e.e.k.z.j.d.d.p.p.p.i.u.q.w.e.Z. X X X X X X X X X X X X X X X X X X X X X X.X#X#X;X;X;X;X;X;X;X",
"$X$X$X$X$X$X$X$X$X$X;X;X=X$X#XXX.X XL.l.l.l.l.f.h.f.9.9.Z. X X X X X X X X X X X X X X X X X X X X X X X X X.X#X#X;X;X;X;X=X$X$X",
" X X X X X X X X X X=X;X;X;X;X;X$X X].[.[.[.[.[.[.].].]. X X X X X X X X X X X X X X X X X X X X X X X X X X.X#X#X;X;X;X;X+X X X",
" X X X X X X X X X X#X$X$X=X=X;X=XXXXX X X X X X X X X X X X X X X X X X X X X X X X X X X X X X X X X X X|.+X$X$X;X;X=X$XXX X X",
" X X X X X X X X X X X X X X#X;X;X;X=X X X X X X X X X X X X X X X X X X X X X X X X X X X X X X X X X XXX#X$X;X;X;X;X.X X X X X"
};
