/* XPM */
static char *_0cacb3ba2fa4ad2c5e9164edeec5318mEl26gEicgtbUr3S[] = {
/* columns rows colors chars-per-pixel */
"64 64 235 2 ",
"   c #160F24",
".  c #181425",
"X  c #191625",
"o  c #1E2328",
"O  c #19323C",
"+  c #222B2A",
"@  c #283D2F",
"#  c #723A37",
"$  c #2B4A34",
"%  c #2F5838",
"&  c #325233",
"*  c #3A6C3B",
"=  c #6F463C",
"-  c #447B3B",
";  c #225045",
":  c #2D6D45",
">  c #337645",
",  c #715742",
"<  c #7B5543",
"1  c #53794A",
"2  c #7B7549",
"3  c #7C764A",
"4  c #757D53",
"5  c #844B41",
"6  c #84794A",
"7  c #837C4D",
"8  c #95744F",
"9  c #857E50",
"0  c #A97B4F",
"q  c #B56F51",
"w  c #B47450",
"e  c #C57E5A",
"r  c #48843D",
"t  c #3E8847",
"y  c #358B56",
"u  c #3A9054",
"i  c #2A8565",
"p  c #329E6B",
"a  c #2CA77D",
"s  c #478A49",
"d  c #5A864C",
"f  c #469348",
"g  c #4A9D4A",
"h  c #529D49",
"j  c #4E9253",
"k  c #7B8358",
"l  c #728E5C",
"z  c #689258",
"x  c #4CA249",
"c  c #4FA849",
"v  c #56AB47",
"b  c #56B24B",
"n  c #5CB548",
"m  c #5CBB4C",
"M  c #6EBA4D",
"N  c #74B64E",
"B  c #71AE50",
"V  c #78BC55",
"C  c #5B9B7A",
"Z  c #658F6B",
"A  c #798C61",
"S  c #699B61",
"D  c #6A916C",
"F  c #7A9369",
"G  c #669773",
"H  c #739971",
"J  c #78A970",
"K  c #5FC34C",
"L  c #5DC75B",
"P  c #63C64D",
"I  c #69C24D",
"U  c #63C84D",
"Y  c #6BC653",
"T  c #78C85B",
"R  c #4ECC6F",
"E  c #4ACA78",
"W  c #7DC16A",
"Q  c #8C9D4F",
"!  c #94954F",
"~  c #878152",
"^  c #8B8555",
"/  c #8E8857",
"(  c #848A5C",
")  c #8E8958",
"_  c #938856",
"`  c #928C5B",
"'  c #96915E",
"]  c #99935F",
"[  c #A98351",
"{  c #83A54E",
"}  c #8BAF55",
"|  c #A0A458",
" . c #839C60",
".. c #9A9662",
"X. c #959862",
"o. c #9E9A65",
"O. c #A29A65",
"+. c #A29E69",
"@. c #B49264",
"#. c #8AB369",
"$. c #A7A46D",
"%. c #AAA670",
"&. c #AEAC74",
"*. c #B1AE76",
"=. c #B8AD7A",
"-. c #AAB77B",
";. c #B6B47C",
":. c #BAB57D",
">. c #B4BB7E",
",. c #BBB87F",
"<. c #CC855F",
"1. c #D99C6C",
"2. c #CBA46B",
"3. c #CCAB72",
"4. c #DDA874",
"5. c #E4A672",
"6. c #E3AA77",
"7. c #E8B07F",
"8. c #86C35C",
"9. c #86C965",
"0. c #91C169",
"q. c #ADC57C",
"w. c #2AAE8C",
"e. c #3DAB94",
"r. c #39AE99",
"t. c #23B79A",
"y. c #36B29E",
"u. c #3CB29C",
"i. c #13BCB6",
"p. c #2CBAA9",
"a. c #36BAA6",
"s. c #579F80",
"d. c #749881",
"f. c #47A287",
"g. c #49A287",
"h. c #46A389",
"j. c #4AA58A",
"k. c #4EAA8D",
"l. c #59A788",
"z. c #50AC8F",
"x. c #43AB92",
"c. c #4CAD92",
"v. c #52AE91",
"b. c #4BB196",
"n. c #43B59D",
"m. c #48B49A",
"M. c #55B294",
"N. c #58B596",
"B. c #5AB798",
"V. c #55B99C",
"C. c #5EBB9B",
"Z. c #69A983",
"A. c #61BE9E",
"S. c #6DBE9D",
"D. c #43BCA4",
"F. c #47BDA4",
"G. c #62BFA0",
"H. c #37CB8F",
"J. c #1AC8B7",
"K. c #1BCCB6",
"L. c #1FC5B8",
"P. c #34C2AF",
"I. c #3BC2AD",
"U. c #23C3B4",
"Y. c #29C4B4",
"T. c #22C7B9",
"R. c #23CABC",
"E. c #2DCDBC",
"W. c #34C6B3",
"Q. c #3CC6B1",
"!. c #36CAB7",
"~. c #3BC9B4",
"^. c #33CDBB",
"/. c #2AD0B5",
"(. c #31D0BE",
"). c #3DD1BC",
"_. c #62C09F",
"`. c #7AC59F",
"'. c #46C2AA",
"]. c #4CC4AA",
"[. c #5DC3A4",
"{. c #57C7AA",
"}. c #47CBB3",
"|. c #55CEB3",
" X c #46D2BB",
".X c #59D6BB",
"XX c #65C3A2",
"oX c #68C7A5",
"OX c #6AC9A7",
"+X c #64CAAA",
"@X c #6CCBAA",
"#X c #77C9A4",
"$X c #6CD0AF",
"%X c #15CEC4",
"&X c #18CDC2",
"*X c #0ED1C9",
"=X c #14D0C6",
"-X c #1AD1C6",
";X c #12D1C8",
":X c #1CD5CA",
">X c #1DD8CC",
",X c #24D4C7",
"<X c #2BD4C4",
"1X c #21D7CA",
"2X c #2BD5CD",
"3X c #25D8CB",
"4X c #2BDBCC",
"5X c #32D5C4",
"6X c #39D8C6",
"7X c #33DECE",
"8X c #3BE1CF",
"9X c #3BE2D0",
"0X c #43DECA",
"qX c #49E2D0",
"wX c #4CE2D3",
"eX c #ABBA87",
"rX c #B3B881",
"tX c #BCBB82",
"yX c #C1BD84",
"uX c #C8BD83",
"iX c #E6B382",
"pX c #90C599",
"aX c #ABC38F",
"sX c #BAC283",
"dX c #A7C390",
"fX c #8BC6A4",
"gX c #C2C187",
"hX c #C4C389",
"jX c #C7C98D",
"kX c #CED096",
"lX c #E7C598",
"zX c #E8CEA3",
"xX c #E4D2A6",
"cX c #E7D4A8",
"vX c #EAD4AA",
/* pixels */
"2X2X2X2X2X2X2X2X2X2X2X2X2X2X2X7X7XwXwXqXqX7X2X2X2X2X2X2X2X2X2X2X2X2X2X2X2X2X2X2X2X2X2X2X2X2X2X2X2X2X2X2X8XwXwXwXqX7X7X2X2X2X2X2X",
";X;X;X;X;X;X;X;X;X;X;X;X;X;X;X;X:X8X8X8X8X:X;X;X;X;X;X;X;X;X;X;X;X;X;X;X;X;X;X;X;X;X;X;X;X;X;X;X;X;X;X;X3X8X8X8X7X;X;X;X;X;X;X;X",
";X;X;X;X;X;X;X;X;X;X;X;X;X;X;X;X;X1X3X7X8X7X4X:X;X;X;X;X;X;X;X;X;X;X;X;X;X;X;X;X;X;X;X;X;X;X;X;X3X4X4X4X3X1X1X3X1X;X;X;X;X;X;X;X",
";X;X;X;X;X;X;X;X;X;X;X;X;X;X;X;X;X;X;X7X8X8X8X4X;X;X;X;X;X;X;X;X;X;X;X;X;X;X;X;X;X;X;X;X;X;X;X;X7X8X8X8X3X;X;X;X;X;X;X;X;X;X;X;X",
";X;X;X;X;X;X;X;X;X;X;X;X;X;X;X;X;X;X;X7X8X8X8X7X4X4X4X4X4X4X4X4X4X4X4X4X4X4X4X4X4X4X4X4X4X4X4X4X3X3X3X3X:X;X;X;X;X;X;X;X;X;X;X;X",
";X;X;X;X;X;X;X;X;X;X;X;X;X;X;X;X;X;X;X7X8X8X8X8X8X8X8X8X8X8X8X8X8X8X8X8X8X8X8X8X8X8X8X8X8X8X8X7X;X;X;X;X;X;X;X;X;X;X;X;X;X;X;X;X",
";X;X;X;X;X;X;X;X;X;X;X;X;X;X;X;X;X4X4X8X8X4X3X3X3X3X3X3X3X3X3X3X3X3X3X3X3X3X3X7X8X8X8X8X8X7X3X1X;X;X;X;X;X;X;X;X;X;X;X;X;X;X;X;X",
";X;X;X;X;X;X;X;X;X;X;X;X;X;X;X;X:X8X8X8X8X1X;X;X;X;X;X;X;X;X;X;X;X;X;X;X;X;X;X7X8X8X8X8X8X7X;X;X;X;X;X;X;X;X;X;X;X;X;X;X;X;X;X;X",
";X;X;X;X;X;X;X;X;X;X;X;X;X;X:X4X3X3X3X3X3X-X%X%X%X=X;X;X;X;X;X;X;X=X=X=X=X=X=X1X3X3X3X3X3X3X4X4X4X4X-X;X;X;X;X;X;X;X;X;X;X;X;X;X",
";X;X;X;X;X;X;X;X;X;X;X;X;X;X1X8X7X;X;X;X;Xt.p p p a %X;X;X;X;X;X;XH.R R R R E K.;X;X;X;X;X:X8X8X8X8X:X;X;X;X;X;X;X;X;X;X;X;X;X;X",
";X;X;X;X;X;X;X;X;X;X;X;X:X4X3X3X1X;X;X%Xt.i % % * u w.J.;X;X;XK.H.j - r n U U H./.;X;X;X;X;X3X3X3X3X3X4X4X4X1X;X;X;X;X;X;X;X;X;X",
";X;X;X;X;X;X;X;X;X;X;X;X4X8X4X;X;X;X;XJ.y $ X X % f s e.T.K.K.H.v @ X X r m P M E ;X;X;X;X;X;X;X;X;X7X8X8X8X4X;X;X;X;X;X;X;X;X;X",
"4X4X4X4X4X4X3X4X4X4X4X4X7X8X4X;X;X;X;Xi.O X X X * M 0 0 ` L L g + X X X X % I [ d.;X;X;X;X;X;X;X;X;X1X3X3X3X3X4X4X4X4X4X4X4X3X4X",
"8X8X8X8X8X8X8X8X8X8X8X8X8X8X4X;X;X;X;Xi.O   o - v I B { N P U f X X X X   & I 0 d.;X;X;X;X;X;X;X;X;X;X;X;X;X1X8X8X8X8X8X8X8X8X8X",
"3X3X3X3X3X3X3X3X3X3X7X8X8X8X4X;X;X;X;XJ.; @ & m U P U U U P U v & o X X @ - I ! Z.;X;X;X;X;X;X;X;X;X;X;X;X;X1X8X8X8X8X4X3X3X3X3X",
";X;X;X;X;X;X;X;X;X;X7X8X8X8X4X;X;X;X%XJ.y t f K P P P P P P P P P & o + h U P P H.;X;X;X*X*X;X;X;X;X;X;X;X;X1X8X8X8X8X:X;X;X;X;X",
";X;X;X;X;X;X;X;X;X;X1X3X7X8X4X;X;X;Xt.y : > f K U P P P P P x x P n v v P U P P E E.E.E.E.E.=X;X;X;X;X;X:X4X3X3X3X3X3X;X;X;X;X;X",
";X;X;X;X;X;X;X;X;X;X;X;X4X8X4X;X;X;Xw.t > : > g x x x x x x c b P U U P Q { P P Y W -.eXeXeX^.;X=X;X;X;X4X8X4X;X;X;X;X;X;X;X;X;X",
";X;X;X;X;X;X;X;X;X;X;X;X4X8X7X3X3X;Xw.s z 1 1 z S S S S S S V T P P P P ! Q P P P I %.=.,.tXpXpXfX).>X3X3X3X:X;X;X;X;X;X;X;X;X;X",
";X;X;X;X;X;X;X;X;X;X;X;X4X8X8X8X7X;Xw.d 2.4.4.zXxXxXxXxXxXxXcXjXY P P P P P P P P I [ @.;.;.:.:.,.`..X0X3X;X;X;X;X;X;X;X;X;X;X;X",
";X;X;X;X;X;X;X;X;X;X;X;X4X8X8X8X7X3XS.2.5.5.6.zXvXvXvXvXvXvXvXxXkX9.P P P U P P P P N V V &.&.&.&.tXaX X,X;X;X;X;X;X;X;X;X;X;X;X",
";X;X;X;X;X;X;X;X;X;X;X;X4X8X8X8X8X9XfX5.5.5.6.zXvXvXvXvXvXvXvXvXvX9.P P P U U P P U U U P #.-.;.;.tXsXaXOX;X;X;X;X;X;X;X;X;X;X;X",
";X;X;X;X;X;X;X;X;X;X1X3X7X8X9X9X0X#XeX4.5.5.6.zXvXvXvXvXvXvXvXvXcX9.P P P P m P P m M N N P #.,.tXyXgXyXdX#XE.*X;X;X;X;X;X;X;X;X",
";X;X;X;X;X;X;X;X;X;X7X8X9X0X.X.X$XeX:.:.4.5.6.zXvXvXvXvXvXvXvXvXxX9.P P U b f m b s 0 w 0 M 0.tXgXgXgXtXtXgX+X^.=X;X;X;X;X;X;X;X",
";X;X;X:X3X3X3X3X3X3X3X4X4X|.rXrXrXtXtX;.l _ <.7.iXiXiXiXiXiXiXiXiX8.K U U b t f c n 0 q w M Y 9.sXgXgXtXtXgXsXpX-X;X;X;X;X;X;X;X",
";X;X;X3X8X8X8X8X8X8X:X-X#XdXtXyXtXyXgX>.j d 8 1.5.5.5.5.5.5.5.5.5.| { { M b t g b I Q ! ! I U Y sXtXtXtXtXgXgXdX-X;X;X;X;X;X;X;X",
";X:X3X4X7X4X4X4X4X3XW.B.eXgXgXgXgXgXtX*.d 1 d 2.5.5.5.5.5.5.5.5.5.e q w N b s m U P P P P P I V >.tXtXtXtXtXgXeXb.Y.;X;X;X;X;X;X",
";X4X8X7X3X1X;X;X%XT.l.] :.hXgXyXtXtX,.%.< = < 1.5.5.5.5.5.5.5.5.5.e q w N b s m U P P P P P { [ :.tXtXtXtXtXgX;._ l.T.%X;X;X;X;X",
"3X4X7X3X:X:X;X;XY.F k 7 ;.gXgX:.&.&.#.z = # 5 1.5.5.5.5.5.5.5.3.} { { { I b t g x g g b P P N } ;.tXtXtXtXgXgX;.) ( F !.3X3X3X3X",
"8X4X3X:X;X;X=Xh.Z ^ ~ ~ +.&.;.;.;.3. .s 8 < , O.2.5.5.5.5.5.7.3.P 9.9.U m h 1 t j S g B 9.Y Y 9.>.tXtXtXgXgX*.+.^ 7 k ~.7X8X8X8X",
"7X3X:X;X;X;X%XG 6 ^ ^ ^ ' +.*.;.:.4.X.j 2.X.s s o.6.5.6.6.6.lXjXT jXjXY h 1 < 1 #.kXT q.kXT 0.tXtXtXgXhXtX;.+.' ^ 7 4 !.3X4X4X4X",
"3X-X;X;X;X;X=XG ^ ^ ^ ^ ' +.;.;.:.:.;.-.yXtX-.-.tXyXyXuXuXuXhXhXq.hXhXq.-.-.=.-.tXjXsXsXhXsXsXhXhXhXhXjX;.....' ^ k l W.1X;X;X;X",
"4X1X:X;X;X:X,XG 6 ^ ^ ^ ^ ` o.&.:.;.tXhXgXhXhXhXgXgXgXgXgXgXgXgXhXgXgXhXhXhXhXhXgXgXgXgXgXhXjXjXjX*.+.+.O...` ^ ^ l.!.P.Y.;X;X;X",
"8X4X3X:X;X:X4XG 7 ~ ~ ~ ^ ^ ` o.$.$.*.tXtXtXgXtXtXtXtXgXgXyX:.;.;.;.;.;.;.;.;.tXgXgXgXtXtXtX;.*.*.+...` ' .._ A M.I.^.].Q.;X;X;X",
"4X4X4X1XL.R.<Xl.F 7 7 9 ^ ) ) ' ....+.*.;.tXtXtX;.;.,.tXyXtX*.&.&.&.&.*.*.*.%.*.tXtXtX*.*.&.o.........^ ` ' F Z.5X!.'.XX|.<X-X;X",
";X4X9X<Xe.x.a.E.I.4 3 9 ' ............o.;.tX;.;.;.;.;.;.;.;.;.;.&.&.*.;.tXtX+.+.&.&.%.o...............^ ^ ( '.5X X|.OXOXOX+X^.;X",
";X1X4X<Xx.j.b.I.W.I.C 6 ~ ) ................+.....*.;.;.;.;.;.;.;.;.;.;.:.,.,.*.+.O.o.............` ^ 6 G I.). X+X+XOXOXOXOX^.;X",
";X;X;X<Xx.j.k.m.D.(.D.C 4 7 ` ` ` ` ) ^ ^ / ..` / ;.yXyXtX;.;.;.;.;.;.;.;.;.;.$.^ ' ........' ` ` ^ k C n.5X}.{.XXXXXXOXOXOX^.;X",
";X;X;X<Xx.j.k.k.c.D.!.<XC k ~ 7 7 7 7 3 ~ ) ] ` ` ;.gXhX:.;.,.tXtX:.;.;.;.&.o.) 2 ` ......' ^ ( F A Z ^.6X}.[.A.A.A.A.oXOXOX^.;X",
";X;X;X<Xx.g.j.j.k.c.n.Q.E.F.X.~ 3 7 7 7 ~ ^ ^ ` ..` ' o.o.$.hXjXjXtX;.;.o.` ..) 3 ~ ^ ^ ^ ^ 6 Z (.<X(. X}.[.XXXXXXXXXXOXOXOX^.;X",
"1X1X3X5Xb.j.j.j.j.k.c.m.W.Q.].H _ ^ 7 3 ~ ^ ^ / ` ` ' ....o.%.$.+.......` ^ ~ ~ _ 7 k m.F.F.n.D.).6X X|.[.A.XXXXoXoXoXXX_.C.E.;X",
"8X8X9X6Xb.k.j.j.j.j.k.k.n.a.<XV.J ( ~ 7 7 ~ ^ ^ ^ ` ] ......' ^ 7 9 9 9 9 7 2 l Z.G l.E.<X5X4X6X|.|.|.OXoXXXXXXXXXXXXXC.B.M.Y.;X",
"8X7X4X<Xb.k.j.j.j.j.j.j.k.b.a.E.^.F ( ( 3 3 ^ ^ ^ ^ ` ....' ^ 7 2 2 2 2 4 4 4 C <X<X<XI.}. X X|.OXOXOXOXOXOXOXXXA.A.A.N.M.k.Y.;X",
"8X:X;X&Xb.k.j.j.j.j.j.j.j.k.c.a.W.!.^.~.D 7 9 ~ ^ ^ ^ / / ^ ^ 7 2 2 2 2 k.^.!.W.P.P.I.[.[.[.+X+XOXOXOXOXOXOXXXXXXXXXXXM.z.k.Y.:X",
"4X:X;X&Xb.k.k.k.j.j.j.j.j.j.z.b.n.^.(.^.n.v.b.H 9 ^ ^ ^ ^ ^ ~ 6 2 s.c.k.a.E.5X}.].].{.OXoXXXXXXXXXXXXXOXoXXXXXXXXXC.N.k.k.k.W.3X",
";X;X;X&Xx.k.k.k.j.k.j.f.f.j.M.M.M.].].'.(.<X2Xm.D H H H H H D D Z W.<X<X~.D.}.{.XXXXoXOXOXOXXXXXXXXXXXXXXXA.XXXXA.N.z.k.k.k. X9X",
";X;X;X&Xx.j.j.j.k.k.j.f.f.v.XXXXXXXXXXXX].Q.Q.^.<X<X<X<X<X<X<X<X<XW.I.Q.{.XXXXXXXXoXOXOXOXOX@X$X$XOXXXA._.XXXXA.v.v.N.z.k.c.~.4X",
";X;X;X&Xx.f.g.j.j.k.j.j.B.A.XXXXXXXXXXXX[.[.V.D.W.W.W.W.W.W.W.W.W.n.b.V.B.C.XXXXXXXXXXOXoXXXoXoXoXXXXXA.B.M.M.M.k.z.z.k.u.T.%X;X",
";X;X;X%Xp.r.f.j.j.j.j.j.A.XXXXXXXXXXXXXXXXA.N.V.].].].D.n.u.u.n.n.c.z.N.N.N.C.C.C.XXXXoXXXXXXXXXC.C.C.N.M.k.k.k.k.k.k.j.u.;X;X;X",
";X;X;X;X;XU.e.h.g.j.j.j.C.XXOXOXOXXXXXOXXXXXB._.OXOXXXN.k.f.f.j.k.k.z.M.N.N.N.N.N.C.XXXXXXXXXXC.N.N.N.k.k.k.k.k.k.k.j.x.a.=X;X;X",
";X;X;X;X;X%X&Xu.j.j.j.g.k.N.XXoXOXOXoXXXoXOXoXOXOXXXXXXXM.j.f.f.g.j.k.k.k.z.N.N.N.N.N.N.N.N.N.N.N.N.N.k.j.j.j.j.j.j.x.T.%X;X;X;X",
";X;X;X;X;X;X=Xu.k.j.j.g.v.B.OXoXXXXXoXoXOXOXOXoXXXoXoXXXN.k.j.j.f.g.j.g.j.k.k.v.N.v.v.v.M.N.v.v.v.z.k.j.j.j.j.g.f.y.U.%X;X;X;X;X",
";X;X;X;X;X;X=Xa.z.k.j.j.v.B.XXoXXXC._.OXOXOXOXoXXXXXA.C.M.k.j.j.f.f.g.j.j.k.j.k.M.z.k.k.v.M.z.k.k.k.j.j.j.j.r.y.y.U.;X;X;X;X;X;X",
";X;X;X;X;X;X=Xu.k.k.k.k.k.v.N.XXoXz.N.OXOXOXoXoXXXM.k.k.k.k.g.f.f.f.j.k.k.k.j.k.k.k.k.k.k.k.k.k.k.k.j.g.f.h.L.;X=X;X;X;X;X;X;X;X",
";X;X;X;X;X;X=Xy.f.g.g.j.k.v.N.v.v.M.C.@X@XOXB.B.N.v.k.k.k.k.g.f.f.f.f.g.j.k.j.j.k.k.k.k.k.k.k.k.k.j.g.f.y.<X-X;X;X;X;X;X;X;X;X;X",
";X;X;X;X;X;X=XU.a.f.j.z.v.M.N.k.k.N.C.A.G.A.N.M.v.z.k.k.k.k.j.g.f.f.g.j.j.j.j.j.j.k.k.j.j.j.k.j.j.y.I.'.).9X4X;X;X;X;X;X;X;X;X;X",
";X;X;X;X;X;X;X;X&Xr.n.F.M.M.N.z.k.M.M.M.M.M.M.v.k.k.k.k.k.j.j.j.f.f.g.j.j.j.j.j.j.j.j.f.h.r.u.u.r.U.3X4X7X7X4X:X:X:X:X;X;X;X;X;X",
";X;X;X;X;X;X;X;X=X%X%X&Xe.k.N.z.k.k.k.z.k.k.k.k.k.k.k.j.j.j.g.f.h.h.h.h.h.h.h.h.h.h.h.f.p.%X%X%X%X=X;X;X:X3X4X8X8X8X8X:X;X;X;X;X",
":X:X:X:X:X:X:X1X:X:X:X:X(.}.N.M.v.k.z.M.z.k.k.k.k.k.j.g.g.g.f.y.L.L.L.L.L.L.L.L.L.L.L.L.&X;X;X;X;X;X;X;X:X1X3X7X7X8X8X3X:X:X:X:X",
"8X8X8X8X8X8X8X8X8X8X8X8X4X<XI.I.a.a.n.N.v.z.z.k.j.j.g.f.r.p.a.U.;X;X;X;X;X;X;X;X;X;X;X;X;X;X;X;X;X;X;X;X;X;X:X3X4X8X8X8X8X8X8X8X",
"4X4X7X7X7X4X4X4X4X4X8X8X7X4X3X:X:X;XY.m.m.m.b.x.x.x.e.e.U.;X;X;X;X;X;X;X;X;X;X;X;X;X;X;X;X;X;X;X;X;X;X;X;X;X:X3X4X8X8X8X8X7X4X4X",
";X;X;X;X;X;X;X;X;X;X7X8X8X8X8X8X7X;X%X&X&X&X&X&X&X%X%X%X%X;X;X=X;X;X;X;X;X;X;X;X;X;X;X;X;X;X;X;X;X;X;X;X;X;X:X3X4X8X8X8X8X1X;X;X",
";X;X;X;X;X;X;X;X;X;X4X4X4X4X7X8X7X1X:X;X;X;X;X;X;X;X;X;X;X;X;X;X;X;X;X;X;X;X;X;X;X;X;X;X;X;X;X;X;X;X;X;X;X-X:X4X4X8X8X7X4X:X;X;X",
";X;X;X;X;X;X;X;X;X;X;X;X;X;X1X8X8X8X7X:X;X;X;X;X;X;X;X;X;X;X;X;X;X;X;X;X;X;X;X;X;X;X;X;X;X;X;X;X;X;X;X;X:X3X4X8X8X8X8X:X;X;X;X;X"
};
