/* XPM */
static char *b0236749a303434caee88178db34ced6HnzHYCy5rtlWTorj[] = {
/* columns rows colors chars-per-pixel */
"64 64 230 2 ",
"   c #160F24",
".  c #181425",
"X  c #181627",
"o  c #1E2128",
"O  c #222D2B",
"+  c #28392D",
"@  c #703D39",
"#  c #2A4733",
"$  c #315536",
"%  c #3A6939",
"&  c #3B723D",
"*  c #72433B",
"=  c #2B6746",
"-  c #326B42",
";  c #367946",
":  c #7F5747",
">  c #487A45",
",  c #5A7348",
"<  c #6A7049",
"1  c #7C7549",
"2  c #7D764A",
"3  c #757C53",
"4  c #905A48",
"5  c #857A4B",
"6  c #837C4E",
"7  c #847E50",
"8  c #887F50",
"9  c #9C7B50",
"0  c #B96D50",
"q  c #AC7250",
"w  c #B37450",
"e  c #B07A51",
"r  c #C57D59",
"t  c #3C8748",
"y  c #399258",
"u  c #2CA77D",
"i  c #30A578",
"p  c #4B8B46",
"a  c #428D49",
"s  c #5A814B",
"d  c #499746",
"f  c #469948",
"g  c #519847",
"h  c #579253",
"j  c #788357",
"k  c #669054",
"l  c #779659",
"z  c #4DA34A",
"x  c #56AA47",
"c  c #56B44B",
"v  c #58B54B",
"b  c #5EBD4B",
"n  c #5BA354",
"m  c #7CAB4E",
"M  c #69BB4D",
"N  c #75B44D",
"B  c #79B34E",
"V  c #70BB4E",
"C  c #72B255",
"Z  c #569D76",
"A  c #6B8A64",
"S  c #778D63",
"D  c #65926E",
"F  c #75946B",
"G  c #679874",
"H  c #749B74",
"J  c #5AB974",
"K  c #71A575",
"L  c #5FC14D",
"P  c #59C95D",
"I  c #63C64D",
"U  c #69C14D",
"Y  c #63C84D",
"T  c #67C753",
"R  c #76C65A",
"E  c #56C961",
"W  c #49CB75",
"Q  c #8B9D4E",
"!  c #91964F",
"~  c #878052",
"^  c #8B8555",
"/  c #898859",
"(  c #8E8958",
")  c #938955",
"_  c #928C5A",
"`  c #8C9659",
"'  c #96915E",
"]  c #99935F",
"[  c #A3844E",
"{  c #A99A58",
"}  c #85A54E",
"|  c #84BE56",
" . c #818D60",
".. c #979461",
"X. c #9A9562",
"o. c #9E9965",
"O. c #839276",
"+. c #A09C67",
"@. c #A29C69",
"#. c #83A76F",
"$. c #83A670",
"%. c #89AA73",
"&. c #A5A16B",
"*. c #A9A56F",
"=. c #B1A26C",
"-. c #A8AA73",
";. c #AEAB74",
":. c #B1AE76",
">. c #B2AF78",
",. c #A9B677",
"<. c #B6B47C",
"1. c #B9B67E",
"2. c #B9B97E",
"3. c #C6835C",
"4. c #CEAC73",
"5. c #DCA772",
"6. c #DCAB76",
"7. c #E4A672",
"8. c #E0AB76",
"9. c #E4AD7B",
"0. c #84C15B",
"q. c #8BC968",
"w. c #99C873",
"e. c #ADC27B",
"r. c #2CB88F",
"t. c #3CAC96",
"y. c #36B29E",
"u. c #3CB29B",
"i. c #16ADA4",
"p. c #2CBBAA",
"a. c #37BBA7",
"s. c #49A287",
"d. c #46A38A",
"f. c #4AA68A",
"g. c #4EAA8D",
"h. c #58A685",
"j. c #51AC8F",
"k. c #42AC93",
"l. c #40AB94",
"z. c #4BAE93",
"x. c #52AE91",
"c. c #43B49C",
"v. c #49B499",
"b. c #56B294",
"n. c #58B496",
"m. c #53B69A",
"M. c #59B799",
"N. c #5DBB9B",
"B. c #68AD89",
"V. c #67B491",
"C. c #61BF9F",
"Z. c #43BBA3",
"A. c #4ABCA3",
"S. c #59BEA1",
"D. c #31CE98",
"F. c #1AC6B5",
"G. c #1FC6B9",
"H. c #16CABB",
"J. c #1BCABE",
"K. c #1FD1B5",
"L. c #1AD0BC",
"P. c #27CFA8",
"I. c #35C1AE",
"U. c #3DC2AC",
"Y. c #23C6B7",
"T. c #2AC3B3",
"R. c #2ECEBD",
"E. c #34C5B2",
"W. c #39C6B1",
"Q. c #38CAB6",
"!. c #32CDBB",
"~. c #37D2BD",
"^. c #41CB80",
"/. c #6BCB85",
"(. c #62C09F",
"). c #43C3AC",
"_. c #4AC4AB",
"`. c #57C5A8",
"'. c #46CBB3",
"]. c #56CEB2",
"[. c #47D2BA",
"{. c #65C3A2",
"}. c #68C7A5",
"|. c #6AC9A7",
" X c #64C9A9",
".X c #6CCBA9",
"XX c #76CBA7",
"oX c #71D0AE",
"OX c #63D3B5",
"+X c #15CEC4",
"@X c #18CDC2",
"#X c #0FD2CB",
"$X c #13D0C6",
"%X c #1BD1C5",
"&X c #12D1C8",
"*X c #1DD5CA",
"=X c #2CCFC0",
"-X c #25D4C6",
";X c #2BD4C4",
":X c #21D7CA",
">X c #25D9CB",
",X c #2CDBCD",
"<X c #33D4C2",
"1X c #38D8C6",
"2X c #34DECE",
"3X c #3BE1CF",
"4X c #3BE2D0",
"5X c #47DDC7",
"6X c #41E0CC",
"7X c #AABC88",
"8X c #B8BA82",
"9X c #BCBB82",
"0X c #C2BF85",
"qX c #CBBE85",
"wX c #E7B381",
"eX c #83C68B",
"rX c #88C59B",
"tX c #9AC596",
"yX c #ABC18E",
"uX c #BAC286",
"iX c #C2C187",
"pX c #C4C389",
"aX c #C8C98C",
"sX c #CED096",
"dX c #E3C698",
"fX c #DED0A1",
"gX c #E9CFA3",
"hX c #E6D3A7",
"jX c #E9D0A5",
"kX c #EAD4AA",
/* pixels */
"&X&X&X&X&X&X&X&X&X&X&X&X&X&X%X*X>X3X3X2X2X*X&X&X&X&X&X&X&X&X&X&X&X&X&X&X&X&X&X&X&X&X&X&X&X&X&X&X&X&X&X&X,X3X3X4X2X*X*X&X&X&X&X&X",
"&X&X&X&X&X&X&X&X&X&X&X&X&X&X&X&X*X3X3X3X3X*X&X&X&X&X&X&X&X&X&X&X&X&X&X&X&X&X&X&X&X&X&X&X&X&X&X&X&X&X&X&X,X3X3X3X2X&X&X&X&X&X&X&X",
"&X&X&X&X&X&X&X&X&X&X&X&X&X&X&X&X&X*X:X3X3X2X,X*X&X&X&X&X&X&X&X&X&X&X&X&X&X&X&X&X&X&X&X&X&X&X&X&X,X,X2X2X>X*X*X*X*X&X&X&X&X&X&X&X",
"&X&X&X&X&X&X&X&X&X&X&X&X&X&X&X&X&X&X&X2X3X3X3X>X&X&X&X&X&X&X&X&X&X&X&X&X&X&X&X&X&X&X&X&X&X&X&X%X2X3X3X3X>X&X&X&X&X&X&X&X&X&X&X&X",
"&X&X&X&X&X&X&X&X&X&X&X&X&X&X&X&X&X&X%X2X3X3X3X2X,X,X,X,X,X,X,X,X,X,X,X,X,X,X,X,X,X,X,X,X,X,X,X,X:X*X*X*X%X&X&X&X&X&X&X&X&X&X&X&X",
"&X&X&X&X&X&X&X&X&X&X&X&X&X&X&X&X&X&X%X2X3X3X3X3X3X3X3X3X3X3X3X3X3X3X3X3X3X3X3X3X3X3X3X3X3X3X3X2X&X&X&X&X&X&X&X&X&X&X&X&X&X&X&X&X",
"&X&X&X&X&X&X&X&X&X&X&X&X&X&X&X&X*X,X2X3X3X>X*X*X*X*X*X*X*X*X*X*X*X*X*X:X*X*X:X2X3X3X3X3X3X2X:X*X&X&X&X&X&X&X&X&X&X&X&X&X&X&X&X&X",
"&X&X&X&X&X&X&X&X&X&X&X&X&X&X&X&X*X3X3X3X3X*X&X&X&X&X&X&X&X&X&X&X&X&X&X&X&X&X&X2X3X3X3X3X3X,X&X&X&X&X&X&X&X&X&X&X&X&X&X&X&X&X&X&X",
"&X&X&X&X&X&X&X&X&X&X&X&X&X&X*X,X,X:X*X*X*X&X&X&X&X&X&X&X&X&X&X&X&X&X&X&X&X&X&X*X*X*X*X*X*X:X,X,X,X,X*X&X&X&X&X&X&X&X&X&X&X&X&X&X",
"&X&X&X&X&X&X&X&X&X&X&X&X&X&X>X3X,X&X&X&X&X&X&X&X&X&X$XL.L.L.L.L.L.&X&X&X&X&X&X&XH.H.H.H.H.*X4X4X3X3X*X&X&X&X&X&X&X&X&X&X&X&X&X&X",
"&X&X&X&X&X&X&X&X&X&X&X&X>X,X>X:X*X&X&X&X&X&X&X&X&X&XP.E P P P P W $X$X$X&X&X&X$Xi y y y r.&X:X:X:X:X,X,X,X,X>X&X&X&X&X&X&X&X&X&X",
"&X&X&X&X&X&X&X&X&X&X&X&X,X3X>X&X&X&X&X&X&X&X&X&X$XD.W I Y x % $ ; ^.K.&X&X#XF.u y & # # = r.F.&X&X&X2X3X3X3X,X&X&X&X&X&X&X&X&X&X",
",X,X,X,X,X,X,X,X,X,X,X,X2X3X>X&X&X&X&X&X&X&X&X&X$XJ N I x & .   + d r.P.P.a.f.s g & .   O - i.&X&X&X*X:X:X:X>X,X,X,X,X,X,X,X,X,X",
"3X3X3X3X3X3X3X3X3X3X3X3X3X3X>X&X&X&X&X&X&X&X&X&X$XO.[ I $ . . . . . d Y I ) w e B d o .   . i.&X&X&X&X&X&X&X*X3X3X3X3X3X3X3X3X3X",
":X:X:X:X:X:X:X:X:X>X2X3X3X3X>X&X&X&X&X&X&X&X&X&X$XO.[ I #   . . . . g Y I V N N U b g +   . i.&X&X&X&X&X&X&X:X3X3X3X3X>X:X:X:X:X",
"&X&X&X&X&X&X&X&X&X&X2X3X3X3X>X&X&X&X&X&X&X&X&X&X$XK } I p $ .   O & x Y I Y Y I I I I & # $ i.&X&X&X&X&X&X&X:X3X3X3X3X*X&X&X&X&X",
"&X&X&X&X&X&X&X&X&X&X*X:X2X3X>X&X&X&X&X&X&X&X&X&X$XW Y I Y x + + % I b b I I I I I I I f t t r.H.&X&X&X&X:X,X,X:X:X:X:X&X&X&X&X&X",
"&X&X&X&X&X&X&X&X&X&X&X&X,X3X>X&X&X&X&X&X&X&X&X$X$XW I I I I b b L I f f I I I I I I I f ; = t i %X$X&X&X,X3X,X&X&X&X&X&X&X&X&X&X",
"&X&X&X&X&X&X&X&X&X&X&X&X,X3X2X,X>X&X&X&X&X&X#XK.W P I I ! ! I Y Y I b x f f f f f f f ; - ; t n tX'.:X,X>X:X*X&X&X&X&X&X&X&X&X&X",
"&X&X&X&X&X&X&X&X&X&X&X&X,X3X3X3X2X&X&X&X&X&Xa.h.I I I I } Q I I I I q.w.$.$.$.$.$.$.#.j j l p k 1.rXOX6X>X&X&X&X&X&X&X&X&X&X&X&X",
"&X&X&X&X&X&X&X&X&X&X&X&X,X3X3X3X2X,X,X,X<X~.O.[ I I I I I I I I T R sXkXkXkXkXkXkXkXkXwX7.5.l l ;.2.yX[.-X&X&X&X&X&X&X&X&X&X&X&X",
"&X&X&X&X&X&X&X&X&X&X&X&X,X3X3X3X3X3X3X5XeXT T U I I I I I I I I q.fXhXkXkXkXkXkXkXkXkXwX7.7.5.4.<.9XpXyX|.&X&X&X&X&X&X&X&X&X&X&X",
"&X&X&X&X&X&X&X&X&X&X>X,X2X4X4X4X5XrXrX/.R Y Y Y Y I I Y I I I I q.hXkXkXkXkXkXkXkXkXkXwX7.7.7.6.9X0XiX0XyXXXR.#X&X&X&X&X&X&X&X&X",
"&X&X&X&X&X&X&X&X&X&X2X3X4X5XOXOXXX8X1.0.U m m m v L I c L I I I q.hXkXkXkXkXkXkXkXkXkXwX7.7.6.4.iXiXiX9X9XiX|.Q.$X&X&X&X&X&X&X&X",
"&X&X&X:X,X,X,X,X,X>X>X>X,X X<.<.8X8X2.R N w 0 9 a c c a v Y I I q.gXjXjXjXjXjXjXjXjXgX9.5.5.pXaXiXiX0X9X9XiXiXtX*X&X&X&X&X&X&X&X",
"&X&X&X,X3X3X3X3X3X3X&X-XrXyX0X0X0Xe.R T N w 0 [ M z a t v Y Y Y 0.9.9.9.9.9.9.9.9.9.9.3.9 h ,.pXiX9X9X8X9XiXiXtX%X&X&X&X&X&X&X&X",
"&X>X,X,X2X,X>X>X>X:XU.V.8XiXiXiXpXe.Y Y M } Q } I v z t c V ! ! { 7.7.7.7.7.7.7.7.7.7.) s a ,.iX9X9X8X8X9X9XiX7Xj.p.&X&X&X&X&X&X",
"&X2X3X,X>X*X&X&X@XT.K ] 9XiXiX9X9X,.B U Y Y Y Y I Y v a c B w 0 r 7.7.7.7.7.7.7.7.7.5.j > > -.iX8X8X8X8X9X9XiX1.) h.T.+X&X&X&X&X",
",X,X,X:X*X&X&X$Xa./ 7 7 1.iX0X<.;.=.e m Y I I I I I v a c B w w 3.5.7.7.7.7.7.7.7.7.7.4 @ * @.8X8X8X8X8X9XiXiX<.( ^ S Q.>X>X,X,X",
"3X,X>X*X&X&X+XZ A ^ ^ ^ @.*.<.<.<.,.B U I I z f f f f t v U N N B | 4.7.7.7.7.7.7.7.7.4 @ * , F 8X8X8X9XiXiX;.+.^ 6 j Q.2X3X3X3X",
",X:X*X&X&X&X@XA 5 ^ ^ ^ ..&.>.<.1.,.q.R R w.C n %.h > , g c I q.q.I 4.wX7.7.7.7.7.4.] < : q s k 4.0XpXpX9X:.@.' ^ 6 3 E.>X>X>X>X",
">X&X&X&X&X&X@XF ^ ^ ^ ^ ' &.<.<.<.<.9Xq.q.fXw.q.fX#.s : , n R aXaXR aXdX6.6.6.6.8.=.h h ` 6.l ` 6.qXpXpX<.X.X.' ^ j A E.:X&X&X&X",
",X:X*X&X&X*X;XA 5 ^ ^ ^ ^ _ o.:.<.<.9XuXuXpXuXuXpX9X8X9X8X8XuXpXpXuXpXpX0X0X0X0X0X0X8X8X9X0XpXpXaX:.+.@.o.X._ ^ ^ h.R.I.T.&X&X&X",
"3X,X>X*X&X*X;XF 8 ~ ~ ~ ^ ^ _ +.&.&.:.9X8X9XiX9X8X9X0XpXpX0X<.<.<.<.<.<.<.<.<.8XiXpXiX9X9X8X:.;.;.@.] _ ' X.) S m.U.E.`.'.&X&X&X",
",X,X2X-XG.Y.R.h.F 6 6 7 ( _ _ ' X.X.&.:.1.9X9X8X1.1.8X9X9X9X:.;.;.;.;.:.<.>.*.:.9X9X2.:.;.;.o.X.X.X.X.^ _ ' H B.<XQ._.}.].R.%X&X",
"&X2X4X=Xd.c.a.;Xa.3 2 7 ' X.X.X.X.X.X.o.1.9X<.<.<.1.1.1.<.<.<.<.;.;.:.<.9X9X@.&.;.;.*.o.X.X.X.X.X.X.] ^ ^  .).;X[.].|.|.|..X!.&X",
"&X:X,X=Xd.f.z.U.E.E.D 5 ~ _ X.X.X.X.X.X...X.+.X...<.<.<.<.<.<.<.<.<.<.<.1.2.8X;.o.o.o.X.X.X.X.X.X._ ^ 5 G Q.~.[. X X|.|.|.|.!.&X",
"&X&X&X;Xd.f.g.v.a.R.c.Z 3 6 ( ( ( ( ( ^ ^ ( X._ _ 8XiXiX8X<.<.<.<.<.<.<.<.<.:.@.^ ' X.X.X.X._ _ _ ^ j h.Z.1X'.`.{.{.{.|.|.|.!.&X",
"&X&X&X;Xd.f.g.g.z.Z.!.!.D j ~ 6 6 6 2 2 ^ ( ] _ _ 1.0XiX<.<.8X8X8X1.<.<.>.;.o.^ 2 _ ..] ] ' ^ / F S D R.1X'.`.C.C.C.C.}.|.|.!.&X",
"&X&X&X;Xd.f.f.f.g.z.Z.W.;XM...7 2 6 6 6 ^ ^ ^ _ X._ ' o.o.&.pXaXaX2.<.<.o.( X.( 2 ~ ^ / / ^ 2 D R.;X<X[.].C.{.{.{.{.{.|.|.|.!.&X",
">X>X>X<Xz.f.f.f.f.g.z.c.E.W._.H ) ^ 6 2 ^ ^ ^ ( _ ' ..X.X.o.*.&.o.X.X.X._ ^ 7 ^ _ 6 j A.).).Z.U.~.~.[.].{.C.{.{.}.}.}.{.C.N.T.&X",
"3X3X4X1Xz.g.f.f.f.f.g.g.c.I.R.N.K ^ 7 6 6 ~ ^ ^ ^ _ ] X.X.X._ ^ 6 6 7 7 6 6 2 S B.G f.R.;X1X<X1X].].]..X}.{.{.}.}.}.{.N.M.b.T.&X",
"3X,X,X<Xz.g.f.f.f.f.f.f.g.v.a.R.W.S  . .2 6 ^ ^ ^ ^ _ X.X.' ^ 6 1 1 2 1 3 3 3 h.-X-X;Xa.'.[.[.].|.|.|.|.|.|.|.}.C.C.C.n.b.g.T.&X",
"3X*X&XJ.z.g.f.f.f.f.f.f.f.g.z.a.E.!.!.Q.S 5 7 ^ ^ ^ ^ ^ ^ ^ ^ 6 1 1 2 2 g.!.!.E.I.I.U. X{.`. X X|.|.|.|.|.|.{.{.{.{.{.b.j.g.T.*X",
",X&X&XJ.z.g.g.f.f.f.f.f.f.f.j.z.Z.!.!.!.c.v.v.F 8 ^ ^ ^ ^ ^ 8 5 1 h.z.z.a.R.<X'.`.`.`.|.}.{.{.{.{.{.{.|.}.{.{.{.{.N.n.g.g.g.E.>X",
"&X&X&XJ.z.g.g.f.f.g.f.d.s.g.b.b.m._._._.<X;X;Xx.D H H H H H G D D E.;X;XW.Z.'.`.{.{.}.|.|.|.{.{.{.{.{.}.{.C.{.{.C.n.j.g.g.g.'.4X",
"&X&X&XJ.d.f.f.f.g.g.f.d.s.b.{.{.{.{.{.{.).).).!.;X;X;X;X;X;X;X;X;XE.U.U.`.{.{.{.{.}.|.|.|.|.oXoXoX|.{.C.(.{.{.C.x.x.n.j.g.z.Q.,X",
"&X&X&XJ.d.s.s.f.f.g.f.f.M.C.{.{.{.{.{.{.`.`.m.U.E.E.E.E.E.E.E.E.E.c.v.m.m.N.{.{.{.{.}.|.}.{.}.}.}.{.{.C.M.b.b.x.g.j.j.g.u.Y.+X&X",
"&X&X&X+Xp.t.s.f.f.f.f.f.(.{.}.}.}.{.{.}.{.C.n.S.`.`.A.c.c.u.u.c.c.z.x.n.n.n.N.N.N.{.{.}.{.{.{.{.N.N.N.n.b.g.g.g.g.g.g.f.y.&X&X&X",
"&X&X&X&X&Xp.t.d.f.f.f.f.N.{.|.|.|.{.}.|.}.{.M.{.|.|.{.n.g.d.d.f.g.g.j.b.n.n.n.n.n.N.{.{.{.{.{.N.n.n.n.g.g.g.g.g.g.g.f.k.a.$X&X&X",
"&X&X&X&X&X+XJ.l.f.f.f.s.g.n.{.}.|.|.}.{.|.|.}.|.|.{.{.{.x.f.d.d.s.f.f.g.g.j.n.n.n.n.n.n.n.n.n.n.n.n.n.g.f.f.f.f.f.f.k.Y.+X&X&X&X",
"&X&X&X&X&X&X+Xc.g.f.f.f.x.N..X}.{.}.}.}.|.|.|.}.}.}.}.{.b.g.f.d.d.s.f.s.f.g.g.x.n.x.x.x.b.n.x.x.x.j.g.f.f.f.f.s.s.y.Y.+X&X&X&X&X",
"&X&X&X&X&X&X+Xc.g.g.f.f.x.N.}.}.{.N.{.|.|.|.|.}.{.(.N.N.b.g.f.f.d.d.s.f.f.g.f.g.b.j.g.g.x.b.j.g.g.g.f.f.f.f.u.y.y.Y.&X&X&X&X&X&X",
"&X&X&X&X&X&X+Xc.g.g.g.g.g.x.n.{.{.g.M..X|.|.}.}.{.x.g.g.g.g.s.d.d.d.f.g.g.g.f.g.g.g.g.g.g.g.g.g.g.g.f.s.d.k.G.&X&X&X&X&X&X&X&X&X",
"&X&X&X&X&X&X+Xt.s.s.s.f.g.x.n.x.x.b.C..X.X}.M.M.n.j.g.g.g.g.s.s.d.d.d.s.f.f.f.f.g.g.g.g.g.g.g.g.g.f.s.s.y.;X*X&X&X&X&X&X&X&X&X&X",
"&X&X&X&X&X&X$XY.a.d.f.j.x.b.n.g.g.n.N.C.C.N.n.b.x.g.g.g.g.g.f.s.d.d.s.f.f.f.f.f.f.g.g.f.f.f.f.f.f.y.U.).~.4X,X&X&X&X&X&X&X&X&X&X",
"&X&X&X&X&X&X&X&XJ.u.c.A.b.b.n.g.g.b.b.b.b.b.b.x.g.g.g.g.g.f.f.s.d.d.s.f.f.f.f.f.f.f.f.d.l.u.u.u.u.Y.>X,X2X2X,X:X*X*X*X&X&X&X&X&X",
"&X&X&X&X&X&X&X&X$X+X$XJ.l.g.n.g.g.g.g.j.g.g.g.g.g.g.g.f.f.f.d.d.d.d.d.d.d.d.d.d.d.d.d.d.p.$X+X+X+X$X&X&X*X>X,X3X3X3X3X*X&X&X&X&X",
"*X*X*X*X*X*X*X*X*X*X*X:XR.).n.b.x.f.j.b.j.g.g.g.g.g.f.s.s.s.s.a.G.G.G.G.G.G.G.G.G.G.G.G.@X&X&X&X&X&X&X&X*X:X>X2X2X3X3X>X*X*X*X*X",
"3X3X3X3X3X3X3X3X3X3X3X3X,XR.U.I.a.a.c.n.x.j.j.f.f.f.s.d.y.p.p.Y.&X&X&X&X&X&X&X&X&X&X&X&X&X&X&X&X&X&X&X&X&X&X*X>X,X3X3X3X3X3X3X3X",
",X,X,X,X,X,X,X,X,X2X3X3X2X,X>X*X*X&XT.v.v.v.v.k.l.l.t.t.G.&X$X&X&X&X&X&X&X&X&X&X&X&X&X&X&X&X&X&X&X&X&X&X&X&X*X>X,X3X3X3X3X2X,X,X",
"&X&X&X&X&X&X&X&X&X&X2X3X3X3X3X3X,X&X+X@X@X@X@X@X@X+X+X+X$X&X$X$X&X&X&X&X&X&X&X&X&X&X&X&X&X&X&X&X&X&X&X&X&X&X*X>X,X3X3X3X3X:X&X&X",
"&X&X&X&X&X&X&X&X&X&X,X,X,X,X2X3X2X*X*X&X&X&X&X&X&X&X&X&X&X&X&X$X&X&X&X&X&X&X&X&X&X&X&X&X&X&X&X&X&X&X&X&X&X%X*X,X,X3X3X2X,X*X&X&X",
"&X&X&X&X&X&X&X&X&X&X&X&X&X&X>X3X3X3X2X&X&X&X&X&X&X&X&X&X&X&X&X&X&X&X&X&X&X&X&X&X&X&X&X&X&X&X&X&X&X&X&X&X*X>X,X3X3X3X3X*X&X&X&X&X"
};
